<?xml version="1.0" encoding="UTF-8" standalone="no"?>
<!DOCTYPE svg PUBLIC "-//W3C//DTD SVG 1.1//EN"
 "http://www.w3.org/Graphics/SVG/1.1/DTD/svg11.dtd">
<!-- Generated by graphviz version 5.0.0 (20220707.1540)
 -->
<!-- Title: GraphTitle Pages: 1 -->
<svg width="1862pt" height="1269pt"
 viewBox="0.00 0.00 1862.29 1268.87" xmlns="http://www.w3.org/2000/svg" xmlns:xlink="http://www.w3.org/1999/xlink">
<g id="graph0" class="graph" transform="scale(1 1) rotate(0) translate(4 1264.87)">
<title>GraphTitle</title>
<polygon fill="white" stroke="transparent" points="-4,4 -4,-1264.87 1858.29,-1264.87 1858.29,4 -4,4"/>
<text text-anchor="middle" x="927.15" y="-1245.67" font-family="Times New Roman,serif" font-size="14.00">Keys from</text>
<text text-anchor="middle" x="927.15" y="-1230.67" font-family="Times New Roman,serif" font-size="14.00">Dorylaimda</text>
<text text-anchor="middle" x="927.15" y="-1215.67" font-family="Times New Roman,serif" font-size="14.00"> Free&#45;living, Predaceous and</text>
<text text-anchor="middle" x="927.15" y="-1200.67" font-family="Times New Roman,serif" font-size="14.00"> Plant&#45;parasitic Nematodes</text>
<text text-anchor="middle" x="927.15" y="-1169.67" font-family="Times New Roman,serif" font-size="14.00"> M. Shamim Jairajpuri</text>
<text text-anchor="middle" x="927.15" y="-1154.67" font-family="Times New Roman,serif" font-size="14.00"> and Wasim Ahmad (1992).</text>
<!-- COMMON GENERA -->
<g id="node1" class="node">
<title>COMMON GENERA</title>
<ellipse fill="none" stroke="black" cx="91.64" cy="-195.87" rx="91.78" ry="18"/>
<text text-anchor="middle" x="91.64" y="-192.17" font-family="Times New Roman,serif" font-size="14.00">COMMON GENERA</text>
</g>
<!-- Tl -->
<g id="node2" class="node">
<title>Tl</title>
<ellipse fill="none" stroke="black" cx="506.25" cy="-350.87" rx="27" ry="18"/>
<text text-anchor="middle" x="506.25" y="-347.17" font-family="Times New Roman,serif" font-size="14.00">Tl</text>
</g>
<!-- COMMON GENERA&#45;&gt;Tl -->
<g id="edge1" class="edge">
<title>COMMON GENERA&#45;&gt;Tl</title>
<path fill="none" stroke="black" d="M101.28,-214.05C116.64,-244.05 151.81,-303.17 201.28,-328.87 288.99,-374.42 410.53,-365.21 469.84,-356.91"/>
<polygon fill="black" stroke="black" points="470.45,-360.35 479.83,-355.43 469.42,-353.43 470.45,-360.35"/>
<text text-anchor="middle" x="286.78" y="-397.67" font-family="Times New Roman,serif" font-size="14.00">Terrestrial nematodes with</text>
<text text-anchor="middle" x="286.78" y="-382.67" font-family="Times New Roman,serif" font-size="14.00">stylet and median</text>
<text text-anchor="middle" x="286.78" y="-367.67" font-family="Times New Roman,serif" font-size="14.00">bulb</text>
</g>
<!-- T2 -->
<g id="node3" class="node">
<title>T2</title>
<ellipse fill="none" stroke="black" cx="506.25" cy="-283.87" rx="27" ry="18"/>
<text text-anchor="middle" x="506.25" y="-280.17" font-family="Times New Roman,serif" font-size="14.00">T2</text>
</g>
<!-- COMMON GENERA&#45;&gt;T2 -->
<g id="edge2" class="edge">
<title>COMMON GENERA&#45;&gt;T2</title>
<path fill="none" stroke="black" d="M117.21,-213.33C138.4,-227.41 170.39,-246.37 201.28,-255.87 294.51,-284.53 410.8,-286.45 468.8,-285.27"/>
<polygon fill="black" stroke="black" points="469.03,-288.77 478.94,-285.02 468.85,-281.77 469.03,-288.77"/>
<text text-anchor="middle" x="286.78" y="-317.67" font-family="Times New Roman,serif" font-size="14.00">Terrestrial nematodes with</text>
<text text-anchor="middle" x="286.78" y="-302.67" font-family="Times New Roman,serif" font-size="14.00">spear, median bulb</text>
<text text-anchor="middle" x="286.78" y="-287.67" font-family="Times New Roman,serif" font-size="14.00">absent</text>
</g>
<!-- T3 -->
<g id="node4" class="node">
<title>T3</title>
<ellipse fill="none" stroke="black" cx="506.25" cy="-229.87" rx="27" ry="18"/>
<text text-anchor="middle" x="506.25" y="-226.17" font-family="Times New Roman,serif" font-size="14.00">T3</text>
</g>
<!-- COMMON GENERA&#45;&gt;T3 -->
<g id="edge3" class="edge">
<title>COMMON GENERA&#45;&gt;T3</title>
<path fill="none" stroke="black" d="M171.23,-204.91C181.34,-205.96 191.55,-206.98 201.28,-207.87 297.81,-216.69 411.84,-224.15 468.9,-227.68"/>
<polygon fill="black" stroke="black" points="469,-231.2 479.2,-228.32 469.43,-224.21 469,-231.2"/>
<text text-anchor="middle" x="286.78" y="-240.67" font-family="Times New Roman,serif" font-size="14.00">Terrestrial nematodes without</text>
<text text-anchor="middle" x="286.78" y="-225.67" font-family="Times New Roman,serif" font-size="14.00">stylet or spear</text>
</g>
<!-- Zl -->
<g id="node5" class="node">
<title>Zl</title>
<ellipse fill="none" stroke="black" cx="506.25" cy="-161.87" rx="27" ry="18"/>
<text text-anchor="middle" x="506.25" y="-158.17" font-family="Times New Roman,serif" font-size="14.00">Zl</text>
</g>
<!-- COMMON GENERA&#45;&gt;Zl -->
<g id="edge4" class="edge">
<title>COMMON GENERA&#45;&gt;Zl</title>
<path fill="none" stroke="black" d="M130.57,-179.53C151.08,-171.57 177.1,-162.87 201.28,-158.87 297.11,-143 412.26,-151.5 469.42,-157.53"/>
<polygon fill="black" stroke="black" points="469.08,-161.01 479.4,-158.62 469.84,-154.06 469.08,-161.01"/>
<text text-anchor="middle" x="286.78" y="-192.67" font-family="Times New Roman,serif" font-size="14.00">Freshwater nematodes with</text>
<text text-anchor="middle" x="286.78" y="-177.67" font-family="Times New Roman,serif" font-size="14.00">stylet and median</text>
<text text-anchor="middle" x="286.78" y="-162.67" font-family="Times New Roman,serif" font-size="14.00">bulb</text>
</g>
<!-- Z2 -->
<g id="node6" class="node">
<title>Z2</title>
<ellipse fill="none" stroke="black" cx="506.25" cy="-93.87" rx="27" ry="18"/>
<text text-anchor="middle" x="506.25" y="-90.17" font-family="Times New Roman,serif" font-size="14.00">Z2</text>
</g>
<!-- COMMON GENERA&#45;&gt;Z2 -->
<g id="edge5" class="edge">
<title>COMMON GENERA&#45;&gt;Z2</title>
<path fill="none" stroke="black" d="M106.43,-177.74C125.06,-154.88 160.65,-116.67 201.28,-100.87 292.76,-65.31 411.7,-77.71 469.96,-87.16"/>
<polygon fill="black" stroke="black" points="469.66,-90.66 480.11,-88.88 470.83,-83.76 469.66,-90.66"/>
<text text-anchor="middle" x="286.78" y="-134.67" font-family="Times New Roman,serif" font-size="14.00">Freshwater nematodes with</text>
<text text-anchor="middle" x="286.78" y="-119.67" font-family="Times New Roman,serif" font-size="14.00">spear, median bulb</text>
<text text-anchor="middle" x="286.78" y="-104.67" font-family="Times New Roman,serif" font-size="14.00">absent</text>
</g>
<!-- Z3 -->
<g id="node7" class="node">
<title>Z3</title>
<ellipse fill="none" stroke="black" cx="506.25" cy="-39.87" rx="27" ry="18"/>
<text text-anchor="middle" x="506.25" y="-36.17" font-family="Times New Roman,serif" font-size="14.00">Z3</text>
</g>
<!-- COMMON GENERA&#45;&gt;Z3 -->
<g id="edge6" class="edge">
<title>COMMON GENERA&#45;&gt;Z3</title>
<path fill="none" stroke="black" d="M99.17,-177.79C112.4,-144.17 145.95,-72.8 201.28,-43.87 289.31,2.15 412.19,-17.33 471.1,-30.88"/>
<polygon fill="black" stroke="black" points="470.46,-34.33 481,-33.24 472.09,-27.52 470.46,-34.33"/>
<text text-anchor="middle" x="286.78" y="-62.67" font-family="Times New Roman,serif" font-size="14.00">Freshwater nematodes without</text>
<text text-anchor="middle" x="286.78" y="-47.67" font-family="Times New Roman,serif" font-size="14.00">stylet or spear</text>
</g>
<!-- Oesophagal glands overlapping
 -->
<g id="node8" class="node">
<title>Oesophagal glands overlapping
</title>
<ellipse fill="none" stroke="black" cx="783.35" cy="-381.87" rx="124.28" ry="18"/>
<text text-anchor="middle" x="783.35" y="-378.17" font-family="Times New Roman,serif" font-size="14.00">Oesophagal glands overlapping</text>
</g>
<!-- Tl&#45;&gt;Oesophagal glands overlapping
 -->
<g id="edge7" class="edge">
<title>Tl&#45;&gt;Oesophagal glands overlapping
</title>
<path fill="none" stroke="black" d="M533.13,-353.79C565.48,-357.43 622.89,-363.9 674.46,-369.71"/>
<polygon fill="black" stroke="black" points="674.35,-373.22 684.68,-370.86 675.14,-366.27 674.35,-373.22"/>
</g>
<!-- Oesophagal glands not
overlapping
 -->
<g id="node21" class="node">
<title>Oesophagal glands not
overlapping
</title>
<ellipse fill="none" stroke="black" cx="783.35" cy="-310.87" rx="101.65" ry="26.74"/>
<text text-anchor="middle" x="783.35" y="-314.67" font-family="Times New Roman,serif" font-size="14.00">Oesophagal glands not</text>
<text text-anchor="middle" x="783.35" y="-299.67" font-family="Times New Roman,serif" font-size="14.00">overlapping</text>
</g>
<!-- Tl&#45;&gt;Oesophagal glands not
overlapping
 -->
<g id="edge20" class="edge">
<title>Tl&#45;&gt;Oesophagal glands not
overlapping
</title>
<path fill="none" stroke="black" d="M533.13,-347.11C567.44,-342.12 629.94,-333.03 683.76,-325.21"/>
<polygon fill="black" stroke="black" points="684.31,-328.66 693.7,-323.76 683.3,-321.74 684.31,-328.66"/>
</g>
<!-- Two gonads5
 -->
<g id="node9" class="node">
<title>Two gonads5
</title>
<ellipse fill="none" stroke="black" cx="1078.84" cy="-586.87" rx="56.59" ry="18"/>
<text text-anchor="middle" x="1078.84" y="-583.17" font-family="Times New Roman,serif" font-size="14.00">Two gonads</text>
</g>
<!-- Oesophagal glands overlapping
&#45;&gt;Two gonads5
 -->
<g id="edge8" class="edge">
<title>Oesophagal glands overlapping
&#45;&gt;Two gonads5
</title>
<path fill="none" stroke="black" d="M809.63,-399.53C862.93,-436.75 986.76,-523.25 1045.63,-564.37"/>
<polygon fill="black" stroke="black" points="1043.97,-567.48 1054.17,-570.33 1047.98,-561.74 1043.97,-567.48"/>
</g>
<!-- One gonad1
 -->
<g id="node13" class="node">
<title>One gonad1
</title>
<ellipse fill="none" stroke="black" cx="1078.84" cy="-381.87" rx="50.89" ry="18"/>
<text text-anchor="middle" x="1078.84" y="-378.17" font-family="Times New Roman,serif" font-size="14.00">One gonad</text>
</g>
<!-- Oesophagal glands overlapping
&#45;&gt;One gonad1
 -->
<g id="edge12" class="edge">
<title>Oesophagal glands overlapping
&#45;&gt;One gonad1
</title>
<path fill="none" stroke="black" d="M907.54,-381.87C945.76,-381.87 986.17,-381.87 1018.03,-381.87"/>
<polygon fill="black" stroke="black" points="1018.06,-385.37 1028.06,-381.87 1018.06,-378.37 1018.06,-385.37"/>
</g>
<!-- Hoplolaimidae; head frame
strongly developed, body
Spiral&#45;shaped
 -->
<g id="node10" class="node">
<title>Hoplolaimidae; head frame
strongly developed, body
Spiral&#45;shaped
</title>
<ellipse fill="none" stroke="black" cx="1385.96" cy="-720.87" rx="117.26" ry="37.45"/>
<text text-anchor="middle" x="1385.96" y="-732.17" font-family="Times New Roman,serif" font-size="14.00">Hoplolaimidae; head frame</text>
<text text-anchor="middle" x="1385.96" y="-717.17" font-family="Times New Roman,serif" font-size="14.00">strongly developed, body</text>
<text text-anchor="middle" x="1385.96" y="-702.17" font-family="Times New Roman,serif" font-size="14.00">Spiral&#45;shaped</text>
</g>
<!-- Two gonads5
&#45;&gt;Hoplolaimidae; head frame
strongly developed, body
Spiral&#45;shaped
 -->
<g id="edge9" class="edge">
<title>Two gonads5
&#45;&gt;Hoplolaimidae; head frame
strongly developed, body
Spiral&#45;shaped
</title>
<path fill="none" stroke="black" d="M1135.37,-588.16C1160.98,-591.12 1190.62,-598.13 1213.19,-613.87 1238.89,-631.79 1225.77,-654.25 1250.19,-673.87 1260.02,-681.77 1271.27,-688.39 1282.99,-693.92"/>
<polygon fill="black" stroke="black" points="1281.9,-697.26 1292.46,-698.12 1284.74,-690.87 1281.9,-697.26"/>
</g>
<!-- Helicotylenchus; tail often
with little tip,
ventrally overlapping
 -->
<g id="node11" class="node">
<title>Helicotylenchus; tail often
with little tip,
ventrally overlapping
</title>
<ellipse fill="none" stroke="black" cx="1385.96" cy="-627.87" rx="113.69" ry="37.45"/>
<text text-anchor="middle" x="1385.96" y="-639.17" font-family="Times New Roman,serif" font-size="14.00">Helicotylenchus; tail often</text>
<text text-anchor="middle" x="1385.96" y="-624.17" font-family="Times New Roman,serif" font-size="14.00">with little tip,</text>
<text text-anchor="middle" x="1385.96" y="-609.17" font-family="Times New Roman,serif" font-size="14.00">ventrally overlapping</text>
</g>
<!-- Two gonads5
&#45;&gt;Helicotylenchus; tail often
with little tip,
ventrally overlapping
 -->
<g id="edge10" class="edge">
<title>Two gonads5
&#45;&gt;Helicotylenchus; tail often
with little tip,
ventrally overlapping
</title>
<path fill="none" stroke="black" d="M1131.26,-593.78C1169.15,-598.87 1222.2,-606 1270,-612.42"/>
<polygon fill="black" stroke="black" points="1269.73,-615.92 1280.11,-613.78 1270.67,-608.98 1269.73,-615.92"/>
</g>
<!-- Rotylenchus; tail without
tip, dorsal overlap
 -->
<g id="node12" class="node">
<title>Rotylenchus; tail without
tip, dorsal overlap
</title>
<ellipse fill="none" stroke="black" cx="1385.96" cy="-545.87" rx="109.7" ry="26.74"/>
<text text-anchor="middle" x="1385.96" y="-549.67" font-family="Times New Roman,serif" font-size="14.00">Rotylenchus; tail without</text>
<text text-anchor="middle" x="1385.96" y="-534.67" font-family="Times New Roman,serif" font-size="14.00">tip, dorsal overlap</text>
</g>
<!-- Two gonads5
&#45;&gt;Rotylenchus; tail without
tip, dorsal overlap
 -->
<g id="edge11" class="edge">
<title>Two gonads5
&#45;&gt;Rotylenchus; tail without
tip, dorsal overlap
</title>
<path fill="none" stroke="black" d="M1131.26,-579.96C1171.7,-574.53 1229.4,-566.77 1279.56,-560.03"/>
<polygon fill="black" stroke="black" points="1280.04,-563.5 1289.48,-558.7 1279.1,-556.56 1280.04,-563.5"/>
</g>
<!-- Pratylenchidae; short stylet
strongly developed, tail
blunt
 -->
<g id="node14" class="node">
<title>Pratylenchidae; short stylet
strongly developed, tail
blunt
</title>
<ellipse fill="none" stroke="black" cx="1385.96" cy="-463.87" rx="118.17" ry="37.45"/>
<text text-anchor="middle" x="1385.96" y="-475.17" font-family="Times New Roman,serif" font-size="14.00">Pratylenchidae; short stylet</text>
<text text-anchor="middle" x="1385.96" y="-460.17" font-family="Times New Roman,serif" font-size="14.00">strongly developed, tail</text>
<text text-anchor="middle" x="1385.96" y="-445.17" font-family="Times New Roman,serif" font-size="14.00">blunt</text>
</g>
<!-- One gonad1
&#45;&gt;Pratylenchidae; short stylet
strongly developed, tail
blunt
 -->
<g id="edge13" class="edge">
<title>One gonad1
&#45;&gt;Pratylenchidae; short stylet
strongly developed, tail
blunt
</title>
<path fill="none" stroke="black" d="M1119.73,-392.59C1161.65,-403.86 1229.2,-422.01 1285.64,-437.18"/>
<polygon fill="black" stroke="black" points="1284.75,-440.56 1295.32,-439.78 1286.57,-433.8 1284.75,-440.56"/>
</g>
<!-- Anguinidae; stylet weak,
tail conical
 -->
<g id="node16" class="node">
<title>Anguinidae; stylet weak,
tail conical
</title>
<ellipse fill="none" stroke="black" cx="1385.96" cy="-381.87" rx="107.46" ry="26.74"/>
<text text-anchor="middle" x="1385.96" y="-385.67" font-family="Times New Roman,serif" font-size="14.00">Anguinidae; stylet weak,</text>
<text text-anchor="middle" x="1385.96" y="-370.67" font-family="Times New Roman,serif" font-size="14.00">tail conical</text>
</g>
<!-- One gonad1
&#45;&gt;Anguinidae; stylet weak,
tail conical
 -->
<g id="edge15" class="edge">
<title>One gonad1
&#45;&gt;Anguinidae; stylet weak,
tail conical
</title>
<path fill="none" stroke="black" d="M1129.54,-381.87C1167.06,-381.87 1220.12,-381.87 1268.17,-381.87"/>
<polygon fill="black" stroke="black" points="1268.33,-385.37 1278.33,-381.87 1268.33,-378.37 1268.33,-385.37"/>
</g>
<!-- Aphelenchoididae; median bulb
light&#45;refracting, stylet weak
 -->
<g id="node18" class="node">
<title>Aphelenchoididae; median bulb
light&#45;refracting, stylet weak
</title>
<ellipse fill="none" stroke="black" cx="1385.96" cy="-309.87" rx="135.53" ry="26.74"/>
<text text-anchor="middle" x="1385.96" y="-313.67" font-family="Times New Roman,serif" font-size="14.00">Aphelenchoididae; median bulb</text>
<text text-anchor="middle" x="1385.96" y="-298.67" font-family="Times New Roman,serif" font-size="14.00">light&#45;refracting, stylet weak</text>
</g>
<!-- One gonad1
&#45;&gt;Aphelenchoididae; median bulb
light&#45;refracting, stylet weak
 -->
<g id="edge17" class="edge">
<title>One gonad1
&#45;&gt;Aphelenchoididae; median bulb
light&#45;refracting, stylet weak
</title>
<path fill="none" stroke="black" d="M1121.63,-372.01C1164.28,-361.95 1231.98,-345.97 1288.06,-332.74"/>
<polygon fill="black" stroke="black" points="1289.1,-336.09 1298.03,-330.38 1287.49,-329.27 1289.1,-336.09"/>
</g>
<!-- Pratylenchus; lip region
flattened
 -->
<g id="node15" class="node">
<title>Pratylenchus; lip region
flattened
</title>
<ellipse fill="none" stroke="black" cx="1706.51" cy="-463.87" rx="103.89" ry="26.74"/>
<text text-anchor="middle" x="1706.51" y="-467.67" font-family="Times New Roman,serif" font-size="14.00">Pratylenchus; lip region</text>
<text text-anchor="middle" x="1706.51" y="-452.67" font-family="Times New Roman,serif" font-size="14.00">flattened</text>
</g>
<!-- Pratylenchidae; short stylet
strongly developed, tail
blunt
&#45;&gt;Pratylenchus; lip region
flattened
 -->
<g id="edge14" class="edge">
<title>Pratylenchidae; short stylet
strongly developed, tail
blunt
&#45;&gt;Pratylenchus; lip region
flattened
</title>
<path fill="none" stroke="black" d="M1504.22,-463.87C1533.02,-463.87 1563.8,-463.87 1592.4,-463.87"/>
<polygon fill="black" stroke="black" points="1592.42,-467.37 1602.42,-463.87 1592.42,-460.37 1592.42,-467.37"/>
</g>
<!-- Pseudhalenchus; median bulb
weakly developed
 -->
<g id="node17" class="node">
<title>Pseudhalenchus; median bulb
weakly developed
</title>
<ellipse fill="none" stroke="black" cx="1706.51" cy="-386.87" rx="128.89" ry="26.74"/>
<text text-anchor="middle" x="1706.51" y="-390.67" font-family="Times New Roman,serif" font-size="14.00">Pseudhalenchus; median bulb</text>
<text text-anchor="middle" x="1706.51" y="-375.67" font-family="Times New Roman,serif" font-size="14.00">weakly developed</text>
</g>
<!-- Anguinidae; stylet weak,
tail conical
&#45;&gt;Pseudhalenchus; median bulb
weakly developed
 -->
<g id="edge16" class="edge">
<title>Anguinidae; stylet weak,
tail conical
&#45;&gt;Pseudhalenchus; median bulb
weakly developed
</title>
<path fill="none" stroke="black" d="M1493.47,-383.54C1517.32,-383.92 1542.94,-384.32 1567.85,-384.71"/>
<polygon fill="black" stroke="black" points="1568.04,-388.21 1578.09,-384.87 1568.15,-381.21 1568.04,-388.21"/>
</g>
<!-- Aphelenchoides; tail conical,
often with mucro
 -->
<g id="node19" class="node">
<title>Aphelenchoides; tail conical,
often with mucro
</title>
<ellipse fill="none" stroke="black" cx="1706.51" cy="-314.87" rx="124.4" ry="26.74"/>
<text text-anchor="middle" x="1706.51" y="-318.67" font-family="Times New Roman,serif" font-size="14.00">Aphelenchoides; tail conical,</text>
<text text-anchor="middle" x="1706.51" y="-303.67" font-family="Times New Roman,serif" font-size="14.00">often with mucro</text>
</g>
<!-- Aphelenchoididae; median bulb
light&#45;refracting, stylet weak
&#45;&gt;Aphelenchoides; tail conical,
often with mucro
 -->
<g id="edge18" class="edge">
<title>Aphelenchoididae; median bulb
light&#45;refracting, stylet weak
&#45;&gt;Aphelenchoides; tail conical,
often with mucro
</title>
<path fill="none" stroke="black" d="M1521.59,-311.98C1538.25,-312.24 1555.29,-312.51 1571.93,-312.77"/>
<polygon fill="black" stroke="black" points="1572.19,-316.28 1582.24,-312.94 1572.3,-309.28 1572.19,-316.28"/>
</g>
<!-- Aphelenchus; tail bluntly
rounded
 -->
<g id="node20" class="node">
<title>Aphelenchus; tail bluntly
rounded
</title>
<ellipse fill="none" stroke="black" cx="1706.51" cy="-242.87" rx="108.38" ry="26.74"/>
<text text-anchor="middle" x="1706.51" y="-246.67" font-family="Times New Roman,serif" font-size="14.00">Aphelenchus; tail bluntly</text>
<text text-anchor="middle" x="1706.51" y="-231.67" font-family="Times New Roman,serif" font-size="14.00">rounded</text>
</g>
<!-- Aphelenchoididae; median bulb
light&#45;refracting, stylet weak
&#45;&gt;Aphelenchus; tail bluntly
rounded
 -->
<g id="edge19" class="edge">
<title>Aphelenchoididae; median bulb
light&#45;refracting, stylet weak
&#45;&gt;Aphelenchus; tail bluntly
rounded
</title>
<path fill="none" stroke="black" d="M1479.95,-290.31C1522.03,-281.46 1571.62,-271.03 1613.57,-262.21"/>
<polygon fill="black" stroke="black" points="1614.44,-265.6 1623.5,-260.12 1613,-258.75 1614.44,-265.6"/>
</g>
<!-- Two gonads1
 -->
<g id="node22" class="node">
<title>Two gonads1
</title>
<ellipse fill="none" stroke="black" cx="1078.84" cy="-262.87" rx="56.59" ry="18"/>
<text text-anchor="middle" x="1078.84" y="-259.17" font-family="Times New Roman,serif" font-size="14.00">Two gonads</text>
</g>
<!-- Oesophagal glands not
overlapping
&#45;&gt;Two gonads1
 -->
<g id="edge21" class="edge">
<title>Oesophagal glands not
overlapping
&#45;&gt;Two gonads1
</title>
<path fill="none" stroke="black" d="M870.43,-296.79C917.87,-289.03 975.59,-279.59 1018.08,-272.64"/>
<polygon fill="black" stroke="black" points="1018.69,-276.09 1027.99,-271.02 1017.56,-269.18 1018.69,-276.09"/>
</g>
<!-- Dolichodoridae; tail bluntly
rounded
 -->
<g id="node23" class="node">
<title>Dolichodoridae; tail bluntly
rounded
</title>
<ellipse fill="none" stroke="black" cx="1385.96" cy="-134.87" rx="118.17" ry="26.74"/>
<text text-anchor="middle" x="1385.96" y="-138.67" font-family="Times New Roman,serif" font-size="14.00">Dolichodoridae; tail bluntly</text>
<text text-anchor="middle" x="1385.96" y="-123.67" font-family="Times New Roman,serif" font-size="14.00">rounded</text>
</g>
<!-- Two gonads1
&#45;&gt;Dolichodoridae; tail bluntly
rounded
 -->
<g id="edge22" class="edge">
<title>Two gonads1
&#45;&gt;Dolichodoridae; tail bluntly
rounded
</title>
<path fill="none" stroke="black" d="M1113.66,-248.68C1163.1,-227.94 1256.08,-188.94 1319.26,-162.43"/>
<polygon fill="black" stroke="black" points="1320.87,-165.55 1328.74,-158.45 1318.17,-159.09 1320.87,-165.55"/>
</g>
<!-- Dolichorynchus; with longitudinal
grooves
 -->
<g id="node24" class="node">
<title>Dolichorynchus; with longitudinal
grooves
</title>
<ellipse fill="none" stroke="black" cx="1706.51" cy="-170.87" rx="143.59" ry="26.74"/>
<text text-anchor="middle" x="1706.51" y="-174.67" font-family="Times New Roman,serif" font-size="14.00">Dolichorynchus; with longitudinal</text>
<text text-anchor="middle" x="1706.51" y="-159.67" font-family="Times New Roman,serif" font-size="14.00">grooves</text>
</g>
<!-- Dolichodoridae; tail bluntly
rounded
&#45;&gt;Dolichorynchus; with longitudinal
grooves
 -->
<g id="edge23" class="edge">
<title>Dolichodoridae; tail bluntly
rounded
&#45;&gt;Dolichorynchus; with longitudinal
grooves
</title>
<path fill="none" stroke="black" d="M1492.15,-146.76C1518.02,-149.68 1546.05,-152.85 1573.03,-155.9"/>
<polygon fill="black" stroke="black" points="1572.98,-159.41 1583.31,-157.06 1573.76,-152.46 1572.98,-159.41"/>
</g>
<!-- Merlinius lateral field
with six lines
 -->
<g id="node25" class="node">
<title>Merlinius lateral field
with six lines
</title>
<ellipse fill="none" stroke="black" cx="1706.51" cy="-98.87" rx="92.76" ry="26.74"/>
<text text-anchor="middle" x="1706.51" y="-102.67" font-family="Times New Roman,serif" font-size="14.00">Merlinius lateral field</text>
<text text-anchor="middle" x="1706.51" y="-87.67" font-family="Times New Roman,serif" font-size="14.00">with six lines</text>
</g>
<!-- Dolichodoridae; tail bluntly
rounded
&#45;&gt;Merlinius lateral field
with six lines
 -->
<g id="edge24" class="edge">
<title>Dolichodoridae; tail bluntly
rounded
&#45;&gt;Merlinius lateral field
with six lines
</title>
<path fill="none" stroke="black" d="M1492.15,-122.98C1530.08,-118.7 1572.66,-113.88 1609.74,-109.69"/>
<polygon fill="black" stroke="black" points="1610.51,-113.13 1620.05,-108.53 1609.72,-106.17 1610.51,-113.13"/>
</g>
<!-- Tylenchorynchus and Bitylenchus;
four lines
 -->
<g id="node26" class="node">
<title>Tylenchorynchus and Bitylenchus;
four lines
</title>
<ellipse fill="none" stroke="black" cx="1706.51" cy="-26.87" rx="147.57" ry="26.74"/>
<text text-anchor="middle" x="1706.51" y="-30.67" font-family="Times New Roman,serif" font-size="14.00">Tylenchorynchus and Bitylenchus;</text>
<text text-anchor="middle" x="1706.51" y="-15.67" font-family="Times New Roman,serif" font-size="14.00">four lines</text>
</g>
<!-- Dolichodoridae; tail bluntly
rounded
&#45;&gt;Tylenchorynchus and Bitylenchus;
four lines
 -->
<g id="edge25" class="edge">
<title>Dolichodoridae; tail bluntly
rounded
&#45;&gt;Tylenchorynchus and Bitylenchus;
four lines
</title>
<path fill="none" stroke="black" d="M1438.77,-110.65C1472.44,-95.54 1517.58,-76.45 1558.72,-62.87 1572.49,-58.33 1587.15,-54.07 1601.68,-50.18"/>
<polygon fill="black" stroke="black" points="1602.92,-53.48 1611.7,-47.55 1601.14,-46.71 1602.92,-53.48"/>
</g>
<!-- One gonad3
 -->
<g id="node27" class="node">
<title>One gonad3
</title>
<ellipse fill="none" stroke="black" cx="91.64" cy="-814.87" rx="50.89" ry="18"/>
<text text-anchor="middle" x="91.64" y="-811.17" font-family="Times New Roman,serif" font-size="14.00">One gonad</text>
</g>
<!-- tail long, acute
 -->
<g id="node28" class="node">
<title>tail long, acute
</title>
<ellipse fill="none" stroke="black" cx="506.25" cy="-928.87" rx="63.09" ry="18"/>
<text text-anchor="middle" x="506.25" y="-925.17" font-family="Times New Roman,serif" font-size="14.00">tail long, acute</text>
</g>
<!-- One gonad3
&#45;&gt;tail long, acute
 -->
<g id="edge26" class="edge">
<title>One gonad3
&#45;&gt;tail long, acute
</title>
<path fill="none" stroke="black" d="M140.21,-820.19C159.2,-824.98 181.26,-831.26 201.28,-836.87 293.4,-862.68 401.52,-891.96 460.78,-910.8"/>
<polygon fill="black" stroke="black" points="459.97,-914.21 470.56,-913.96 462.12,-907.55 459.97,-914.21"/>
</g>
<!-- One gonad3
&#45;&gt;tail long, acute
 -->
<g id="edge29" class="edge">
<title>One gonad3
&#45;&gt;tail long, acute
</title>
<path fill="none" stroke="black" d="M119.86,-830.01C141.82,-838.02 173.52,-847.09 201.28,-854.87 283.49,-877.91 378.43,-903.7 440.03,-918.29"/>
<polygon fill="black" stroke="black" points="439.46,-921.75 450,-920.62 441.06,-914.94 439.46,-921.75"/>
</g>
<!-- body with conspicuously
broad annules, little,
plump nematodes
 -->
<g id="node36" class="node">
<title>body with conspicuously
broad annules, little,
plump nematodes
</title>
<ellipse fill="none" stroke="black" cx="506.25" cy="-851.87" rx="111.95" ry="37.45"/>
<text text-anchor="middle" x="506.25" y="-863.17" font-family="Times New Roman,serif" font-size="14.00">body with conspicuously</text>
<text text-anchor="middle" x="506.25" y="-848.17" font-family="Times New Roman,serif" font-size="14.00">broad annules, little,</text>
<text text-anchor="middle" x="506.25" y="-833.17" font-family="Times New Roman,serif" font-size="14.00">plump nematodes</text>
</g>
<!-- One gonad3
&#45;&gt;body with conspicuously
broad annules, little,
plump nematodes
 -->
<g id="edge35" class="edge">
<title>One gonad3
&#45;&gt;body with conspicuously
broad annules, little,
plump nematodes
</title>
<path fill="none" stroke="black" d="M141.19,-819.22C201.35,-824.62 305.91,-833.99 387.59,-841.32"/>
<polygon fill="black" stroke="black" points="387.66,-844.84 397.94,-842.25 388.29,-837.87 387.66,-844.84"/>
</g>
<!-- double, annulated cuticle
 -->
<g id="node38" class="node">
<title>double, annulated cuticle
</title>
<ellipse fill="none" stroke="black" cx="506.25" cy="-778.87" rx="100.98" ry="18"/>
<text text-anchor="middle" x="506.25" y="-775.17" font-family="Times New Roman,serif" font-size="14.00">double, annulated cuticle</text>
</g>
<!-- One gonad3
&#45;&gt;double, annulated cuticle
 -->
<g id="edge37" class="edge">
<title>One gonad3
&#45;&gt;double, annulated cuticle
</title>
<path fill="none" stroke="black" d="M141.19,-810.63C205.77,-805 321.52,-794.9 405.2,-787.6"/>
<polygon fill="black" stroke="black" points="405.58,-791.08 415.24,-786.72 404.97,-784.11 405.58,-791.08"/>
</g>
<!-- little C&#45;shaped nematodes,
procorpus gently widens
into median bulb
 -->
<g id="node42" class="node">
<title>little C&#45;shaped nematodes,
procorpus gently widens
into median bulb
</title>
<ellipse fill="none" stroke="black" cx="506.25" cy="-705.87" rx="115.93" ry="37.45"/>
<text text-anchor="middle" x="506.25" y="-717.17" font-family="Times New Roman,serif" font-size="14.00">little C&#45;shaped nematodes,</text>
<text text-anchor="middle" x="506.25" y="-702.17" font-family="Times New Roman,serif" font-size="14.00">procorpus gently widens</text>
<text text-anchor="middle" x="506.25" y="-687.17" font-family="Times New Roman,serif" font-size="14.00">into median bulb</text>
</g>
<!-- One gonad3
&#45;&gt;little C&#45;shaped nematodes,
procorpus gently widens
into median bulb
 -->
<g id="edge41" class="edge">
<title>One gonad3
&#45;&gt;little C&#45;shaped nematodes,
procorpus gently widens
into median bulb
</title>
<path fill="none" stroke="black" d="M120.77,-799.97C142.7,-792.46 173.92,-784.12 201.28,-776.87 265.48,-759.85 337.34,-740.94 395.07,-726.74"/>
<polygon fill="black" stroke="black" points="396.06,-730.1 404.94,-724.32 394.4,-723.3 396.06,-730.1"/>
</g>
<!-- One gonad3
&#45;&gt;little C&#45;shaped nematodes,
procorpus gently widens
into median bulb
 -->
<g id="edge42" class="edge">
<title>One gonad3
&#45;&gt;little C&#45;shaped nematodes,
procorpus gently widens
into median bulb
</title>
<path fill="none" stroke="black" d="M140.77,-810.36C159.63,-805.94 181.47,-800.12 201.28,-794.87 274.23,-775.53 357.08,-753.74 417.83,-736.37"/>
<polygon fill="black" stroke="black" points="419.13,-739.64 427.77,-733.51 417.19,-732.91 419.13,-739.64"/>
</g>
<!-- Tylodoridae; stylet as
long as half
the distance from
 -->
<g id="node29" class="node">
<title>Tylodoridae; stylet as
long as half
the distance from
</title>
<ellipse fill="none" stroke="black" cx="783.35" cy="-1085.87" rx="96.75" ry="37.45"/>
<text text-anchor="middle" x="783.35" y="-1097.17" font-family="Times New Roman,serif" font-size="14.00">Tylodoridae; stylet as</text>
<text text-anchor="middle" x="783.35" y="-1082.17" font-family="Times New Roman,serif" font-size="14.00">long as half</text>
<text text-anchor="middle" x="783.35" y="-1067.17" font-family="Times New Roman,serif" font-size="14.00">the distance from</text>
</g>
<!-- tail long, acute
&#45;&gt;Tylodoridae; stylet as
long as half
the distance from
 -->
<g id="edge27" class="edge">
<title>tail long, acute
&#45;&gt;Tylodoridae; stylet as
long as half
the distance from
</title>
<path fill="none" stroke="black" d="M535.4,-944.93C578.38,-969.46 661.48,-1016.89 719.35,-1049.91"/>
<polygon fill="black" stroke="black" points="717.63,-1052.97 728.05,-1054.88 721.1,-1046.89 717.63,-1052.97"/>
</g>
<!-- Tylenchidae; stylet short,
tail elongated conical
 -->
<g id="node31" class="node">
<title>Tylenchidae; stylet short,
tail elongated conical
</title>
<ellipse fill="none" stroke="black" cx="783.35" cy="-930.87" rx="111.03" ry="26.74"/>
<text text-anchor="middle" x="783.35" y="-934.67" font-family="Times New Roman,serif" font-size="14.00">Tylenchidae; stylet short,</text>
<text text-anchor="middle" x="783.35" y="-919.67" font-family="Times New Roman,serif" font-size="14.00">tail elongated conical</text>
</g>
<!-- tail long, acute
&#45;&gt;Tylenchidae; stylet short,
tail elongated conical
 -->
<g id="edge30" class="edge">
<title>tail long, acute
&#45;&gt;Tylenchidae; stylet short,
tail elongated conical
</title>
<path fill="none" stroke="black" d="M569.33,-929.32C596.72,-929.52 629.88,-929.76 661.8,-929.99"/>
<polygon fill="black" stroke="black" points="662.09,-933.5 672.12,-930.07 662.14,-926.5 662.09,-933.5"/>
</g>
<!-- Cephalenchus -->
<g id="node30" class="node">
<title>Cephalenchus</title>
<ellipse fill="none" stroke="black" cx="1078.84" cy="-1128.87" rx="61.99" ry="18"/>
<text text-anchor="middle" x="1078.84" y="-1125.17" font-family="Times New Roman,serif" font-size="14.00">Cephalenchus</text>
</g>
<!-- Tylodoridae; stylet as
long as half
the distance from
&#45;&gt;Cephalenchus -->
<g id="edge28" class="edge">
<title>Tylodoridae; stylet as
long as half
the distance from
&#45;&gt;Cephalenchus</title>
<path fill="none" stroke="black" d="M874.4,-1099.06C919.3,-1105.64 972.55,-1113.44 1013.32,-1119.42"/>
<polygon fill="black" stroke="black" points="1012.99,-1122.91 1023.4,-1120.89 1014.01,-1115.98 1012.99,-1122.91"/>
</g>
<!-- Coslenchus; with longitudinal
grooves
 -->
<g id="node32" class="node">
<title>Coslenchus; with longitudinal
grooves
</title>
<ellipse fill="none" stroke="black" cx="1078.84" cy="-1065.87" rx="127.06" ry="26.74"/>
<text text-anchor="middle" x="1078.84" y="-1069.67" font-family="Times New Roman,serif" font-size="14.00">Coslenchus; with longitudinal</text>
<text text-anchor="middle" x="1078.84" y="-1054.67" font-family="Times New Roman,serif" font-size="14.00">grooves</text>
</g>
<!-- Tylenchidae; stylet short,
tail elongated conical
&#45;&gt;Coslenchus; with longitudinal
grooves
 -->
<g id="edge31" class="edge">
<title>Tylenchidae; stylet short,
tail elongated conical
&#45;&gt;Coslenchus; with longitudinal
grooves
</title>
<path fill="none" stroke="black" d="M818.98,-956.4C850.36,-978.52 898.6,-1010 944.49,-1029.87 956.15,-1034.92 968.7,-1039.42 981.27,-1043.39"/>
<polygon fill="black" stroke="black" points="980.28,-1046.74 990.87,-1046.31 982.32,-1040.05 980.28,-1046.74"/>
</g>
<!-- Malenchus; cuticle strongly
annulated, folded
 -->
<g id="node33" class="node">
<title>Malenchus; cuticle strongly
annulated, folded
</title>
<ellipse fill="none" stroke="black" cx="1078.84" cy="-993.87" rx="119.5" ry="26.74"/>
<text text-anchor="middle" x="1078.84" y="-997.67" font-family="Times New Roman,serif" font-size="14.00">Malenchus; cuticle strongly</text>
<text text-anchor="middle" x="1078.84" y="-982.67" font-family="Times New Roman,serif" font-size="14.00">annulated, folded</text>
</g>
<!-- Tylenchidae; stylet short,
tail elongated conical
&#45;&gt;Malenchus; cuticle strongly
annulated, folded
 -->
<g id="edge32" class="edge">
<title>Tylenchidae; stylet short,
tail elongated conical
&#45;&gt;Malenchus; cuticle strongly
annulated, folded
</title>
<path fill="none" stroke="black" d="M866.89,-948.59C902.68,-956.27 944.83,-965.32 982,-973.3"/>
<polygon fill="black" stroke="black" points="981.33,-976.73 991.84,-975.41 982.8,-969.89 981.33,-976.73"/>
</g>
<!-- Aglenchus; with vulva_flaps
 -->
<g id="node34" class="node">
<title>Aglenchus; with vulva_flaps
</title>
<ellipse fill="none" stroke="black" cx="1078.84" cy="-930.87" rx="112.38" ry="18"/>
<text text-anchor="middle" x="1078.84" y="-927.17" font-family="Times New Roman,serif" font-size="14.00">Aglenchus; with vulva_flaps</text>
</g>
<!-- Tylenchidae; stylet short,
tail elongated conical
&#45;&gt;Aglenchus; with vulva_flaps
 -->
<g id="edge33" class="edge">
<title>Tylenchidae; stylet short,
tail elongated conical
&#45;&gt;Aglenchus; with vulva_flaps
</title>
<path fill="none" stroke="black" d="M894.47,-930.87C914.51,-930.87 935.52,-930.87 955.88,-930.87"/>
<polygon fill="black" stroke="black" points="956.13,-934.37 966.13,-930.87 956.13,-927.37 956.13,-934.37"/>
</g>
<!-- Filenchus; the large
group for the
remaining species
 -->
<g id="node35" class="node">
<title>Filenchus; the large
group for the
remaining species
</title>
<ellipse fill="none" stroke="black" cx="1078.84" cy="-857.87" rx="87.86" ry="37.45"/>
<text text-anchor="middle" x="1078.84" y="-869.17" font-family="Times New Roman,serif" font-size="14.00">Filenchus; the large</text>
<text text-anchor="middle" x="1078.84" y="-854.17" font-family="Times New Roman,serif" font-size="14.00">group for the</text>
<text text-anchor="middle" x="1078.84" y="-839.17" font-family="Times New Roman,serif" font-size="14.00">remaining species</text>
</g>
<!-- Tylenchidae; stylet short,
tail elongated conical
&#45;&gt;Filenchus; the large
group for the
remaining species
 -->
<g id="edge34" class="edge">
<title>Tylenchidae; stylet short,
tail elongated conical
&#45;&gt;Filenchus; the large
group for the
remaining species
</title>
<path fill="none" stroke="black" d="M861.46,-911.69C901.87,-901.64 951.45,-889.31 992.95,-878.99"/>
<polygon fill="black" stroke="black" points="993.91,-882.35 1002.77,-876.54 992.22,-875.56 993.91,-882.35"/>
</g>
<!-- Criconematidae; several genera
 -->
<g id="node37" class="node">
<title>Criconematidae; several genera
</title>
<ellipse fill="none" stroke="black" cx="783.35" cy="-851.87" rx="122.68" ry="18"/>
<text text-anchor="middle" x="783.35" y="-848.17" font-family="Times New Roman,serif" font-size="14.00">Criconematidae; several genera</text>
</g>
<!-- body with conspicuously
broad annules, little,
plump nematodes
&#45;&gt;Criconematidae; several genera
 -->
<g id="edge36" class="edge">
<title>body with conspicuously
broad annules, little,
plump nematodes
&#45;&gt;Criconematidae; several genera
</title>
<path fill="none" stroke="black" d="M618.35,-851.87C628.86,-851.87 639.59,-851.87 650.27,-851.87"/>
<polygon fill="black" stroke="black" points="650.48,-855.37 660.48,-851.87 650.48,-848.37 650.48,-855.37"/>
</g>
<!-- Hernicycliophoridae -->
<g id="node39" class="node">
<title>Hernicycliophoridae</title>
<ellipse fill="none" stroke="black" cx="783.35" cy="-775.87" rx="83.69" ry="18"/>
<text text-anchor="middle" x="783.35" y="-772.17" font-family="Times New Roman,serif" font-size="14.00">Hernicycliophoridae</text>
</g>
<!-- double, annulated cuticle
&#45;&gt;Hernicycliophoridae -->
<g id="edge38" class="edge">
<title>double, annulated cuticle
&#45;&gt;Hernicycliophoridae</title>
<path fill="none" stroke="black" d="M606.96,-777.78C633.82,-777.49 662.77,-777.17 689.25,-776.89"/>
<polygon fill="black" stroke="black" points="689.31,-780.38 699.27,-776.78 689.24,-773.39 689.31,-780.38"/>
</g>
<!-- Hemicycliophora; body behind
vulva narrowing
 -->
<g id="node40" class="node">
<title>Hemicycliophora; body behind
vulva narrowing
</title>
<ellipse fill="none" stroke="black" cx="1078.84" cy="-775.87" rx="134.2" ry="26.74"/>
<text text-anchor="middle" x="1078.84" y="-779.67" font-family="Times New Roman,serif" font-size="14.00">Hemicycliophora; body behind</text>
<text text-anchor="middle" x="1078.84" y="-764.67" font-family="Times New Roman,serif" font-size="14.00">vulva narrowing</text>
</g>
<!-- Hernicycliophoridae&#45;&gt;Hemicycliophora; body behind
vulva narrowing
 -->
<g id="edge39" class="edge">
<title>Hernicycliophoridae&#45;&gt;Hemicycliophora; body behind
vulva narrowing
</title>
<path fill="none" stroke="black" d="M867.28,-775.87C888.17,-775.87 911.21,-775.87 934.15,-775.87"/>
<polygon fill="black" stroke="black" points="934.32,-779.37 944.32,-775.87 934.32,-772.37 934.32,-779.37"/>
</g>
<!-- Loofia; body behind
vulva not narrowing
 -->
<g id="node41" class="node">
<title>Loofia; body behind
vulva not narrowing
</title>
<ellipse fill="none" stroke="black" cx="1078.84" cy="-703.87" rx="92.76" ry="26.74"/>
<text text-anchor="middle" x="1078.84" y="-707.67" font-family="Times New Roman,serif" font-size="14.00">Loofia; body behind</text>
<text text-anchor="middle" x="1078.84" y="-692.67" font-family="Times New Roman,serif" font-size="14.00">vulva not narrowing</text>
</g>
<!-- Hernicycliophoridae&#45;&gt;Loofia; body behind
vulva not narrowing
 -->
<g id="edge40" class="edge">
<title>Hernicycliophoridae&#45;&gt;Loofia; body behind
vulva not narrowing
</title>
<path fill="none" stroke="black" d="M839.21,-762.41C883.85,-751.46 947.48,-735.85 997.8,-723.51"/>
<polygon fill="black" stroke="black" points="998.8,-726.86 1007.68,-721.08 997.14,-720.07 998.8,-726.86"/>
</g>
<!-- Paratylenchidae -->
<g id="node43" class="node">
<title>Paratylenchidae</title>
<ellipse fill="none" stroke="black" cx="783.35" cy="-672.87" rx="67.69" ry="18"/>
<text text-anchor="middle" x="783.35" y="-669.17" font-family="Times New Roman,serif" font-size="14.00">Paratylenchidae</text>
</g>
<!-- little C&#45;shaped nematodes,
procorpus gently widens
into median bulb
&#45;&gt;Paratylenchidae -->
<g id="edge43" class="edge">
<title>little C&#45;shaped nematodes,
procorpus gently widens
into median bulb
&#45;&gt;Paratylenchidae</title>
<path fill="none" stroke="black" d="M615.19,-692.92C647.51,-689.05 682.11,-684.89 711.41,-681.38"/>
<polygon fill="black" stroke="black" points="712.02,-684.83 721.53,-680.17 711.19,-677.88 712.02,-684.83"/>
</g>
<!-- Paratylenchus; stylet long
 -->
<g id="node44" class="node">
<title>Paratylenchus; stylet long
</title>
<ellipse fill="none" stroke="black" cx="1078.84" cy="-640.87" rx="102.88" ry="18"/>
<text text-anchor="middle" x="1078.84" y="-637.17" font-family="Times New Roman,serif" font-size="14.00">Paratylenchus; stylet long</text>
</g>
<!-- Paratylenchidae&#45;&gt;Paratylenchus; stylet long
 -->
<g id="edge44" class="edge">
<title>Paratylenchidae&#45;&gt;Paratylenchus; stylet long
</title>
<path fill="none" stroke="black" d="M846.24,-666.12C885.4,-661.85 936.86,-656.24 981.32,-651.39"/>
<polygon fill="black" stroke="black" points="981.72,-654.87 991.28,-650.31 980.96,-647.91 981.72,-654.87"/>
</g>
</g>
</svg>
