<?xml version="1.0" encoding="UTF-8" standalone="no"?>
<!DOCTYPE svg PUBLIC "-//W3C//DTD SVG 1.1//EN"
 "http://www.w3.org/Graphics/SVG/1.1/DTD/svg11.dtd">
<!-- Generated by graphviz version 5.0.0 (20220707.1540)
 -->
<!-- Title: GraphTitle Pages: 1 -->
<svg width="1676pt" height="1065pt"
 viewBox="0.00 0.00 1676.23 1065.48" xmlns="http://www.w3.org/2000/svg" xmlns:xlink="http://www.w3.org/1999/xlink">
<g id="graph0" class="graph" transform="scale(1 1) rotate(0) translate(4 1061.48)">
<title>GraphTitle</title>
<polygon fill="white" stroke="transparent" points="-4,4 -4,-1061.48 1672.23,-1061.48 1672.23,4 -4,4"/>
<text text-anchor="middle" x="834.12" y="-1042.28" font-family="Times New Roman,serif" font-size="14.00">Keys from</text>
<text text-anchor="middle" x="834.12" y="-1027.28" font-family="Times New Roman,serif" font-size="14.00">Dorylaimda</text>
<text text-anchor="middle" x="834.12" y="-1012.28" font-family="Times New Roman,serif" font-size="14.00"> Free&#45;living, Predaceous and</text>
<text text-anchor="middle" x="834.12" y="-997.28" font-family="Times New Roman,serif" font-size="14.00"> Plant&#45;parasitic Nematodes</text>
<text text-anchor="middle" x="834.12" y="-966.28" font-family="Times New Roman,serif" font-size="14.00"> M. Shamim Jairajpuri</text>
<text text-anchor="middle" x="834.12" y="-951.28" font-family="Times New Roman,serif" font-size="14.00"> and Wasim Ahmad (1992).</text>
<!-- COMMON GENERA -->
<g id="node1" class="node">
<title>COMMON GENERA</title>
<ellipse fill="none" stroke="black" cx="91.64" cy="-290" rx="91.78" ry="18"/>
<text text-anchor="middle" x="91.64" y="-286.3" font-family="Times New Roman,serif" font-size="14.00">COMMON GENERA</text>
</g>
<!-- Tl -->
<g id="node2" class="node">
<title>Tl</title>
<ellipse fill="none" stroke="black" cx="491.02" cy="-445" rx="27" ry="18"/>
<text text-anchor="middle" x="491.02" y="-441.3" font-family="Times New Roman,serif" font-size="14.00">Tl</text>
</g>
<!-- COMMON GENERA&#45;&gt;Tl -->
<g id="edge1" class="edge">
<title>COMMON GENERA&#45;&gt;Tl</title>
<path fill="none" stroke="black" d="M101.29,-308.16C116.67,-338.13 151.86,-397.21 201.28,-423 244.23,-445.41 386.11,-446.55 453.66,-445.74"/>
<polygon fill="black" stroke="black" points="453.89,-449.24 463.84,-445.6 453.79,-442.24 453.89,-449.24"/>
<text text-anchor="middle" x="286.78" y="-478.8" font-family="Times New Roman,serif" font-size="14.00">Terrestrial nematodes with</text>
<text text-anchor="middle" x="286.78" y="-463.8" font-family="Times New Roman,serif" font-size="14.00">stylet and median</text>
<text text-anchor="middle" x="286.78" y="-448.8" font-family="Times New Roman,serif" font-size="14.00">bulb</text>
</g>
<!-- T2 -->
<g id="node3" class="node">
<title>T2</title>
<ellipse fill="none" stroke="black" cx="491.02" cy="-378" rx="27" ry="18"/>
<text text-anchor="middle" x="491.02" y="-374.3" font-family="Times New Roman,serif" font-size="14.00">T2</text>
</g>
<!-- COMMON GENERA&#45;&gt;T2 -->
<g id="edge2" class="edge">
<title>COMMON GENERA&#45;&gt;T2</title>
<path fill="none" stroke="black" d="M117.7,-307.37C138.93,-321.14 170.72,-339.59 201.28,-349 289.04,-376.03 398.19,-379.27 453.79,-378.9"/>
<polygon fill="black" stroke="black" points="453.9,-382.4 463.86,-378.78 453.82,-375.4 453.9,-382.4"/>
<text text-anchor="middle" x="286.78" y="-409.8" font-family="Times New Roman,serif" font-size="14.00">Terrestrial nematodes with</text>
<text text-anchor="middle" x="286.78" y="-394.8" font-family="Times New Roman,serif" font-size="14.00">spear, median bulb</text>
<text text-anchor="middle" x="286.78" y="-379.8" font-family="Times New Roman,serif" font-size="14.00">absent</text>
</g>
<!-- T3 -->
<g id="node4" class="node">
<title>T3</title>
<ellipse fill="none" stroke="black" cx="491.02" cy="-324" rx="27" ry="18"/>
<text text-anchor="middle" x="491.02" y="-320.3" font-family="Times New Roman,serif" font-size="14.00">T3</text>
</g>
<!-- COMMON GENERA&#45;&gt;T3 -->
<g id="edge3" class="edge">
<title>COMMON GENERA&#45;&gt;T3</title>
<path fill="none" stroke="black" d="M171.23,-299C181.34,-300.06 191.55,-301.09 201.28,-302 292.09,-310.47 399.19,-317.98 453.9,-321.64"/>
<polygon fill="black" stroke="black" points="453.91,-325.15 464.12,-322.32 454.37,-318.17 453.91,-325.15"/>
<text text-anchor="middle" x="286.78" y="-333.8" font-family="Times New Roman,serif" font-size="14.00">Terrestrial nematodes without</text>
<text text-anchor="middle" x="286.78" y="-318.8" font-family="Times New Roman,serif" font-size="14.00">stylet or spear</text>
</g>
<!-- Zl -->
<g id="node5" class="node">
<title>Zl</title>
<ellipse fill="none" stroke="black" cx="491.02" cy="-256" rx="27" ry="18"/>
<text text-anchor="middle" x="491.02" y="-252.3" font-family="Times New Roman,serif" font-size="14.00">Zl</text>
</g>
<!-- COMMON GENERA&#45;&gt;Zl -->
<g id="edge4" class="edge">
<title>COMMON GENERA&#45;&gt;Zl</title>
<path fill="none" stroke="black" d="M130.57,-273.66C151.08,-265.7 177.1,-257 201.28,-253 291.23,-238.1 399.11,-245.89 454.04,-251.64"/>
<polygon fill="black" stroke="black" points="453.98,-255.16 464.3,-252.76 454.74,-248.2 453.98,-255.16"/>
<text text-anchor="middle" x="286.78" y="-286.8" font-family="Times New Roman,serif" font-size="14.00">Freshwater nematodes with</text>
<text text-anchor="middle" x="286.78" y="-271.8" font-family="Times New Roman,serif" font-size="14.00">stylet and median</text>
<text text-anchor="middle" x="286.78" y="-256.8" font-family="Times New Roman,serif" font-size="14.00">bulb</text>
</g>
<!-- Z2 -->
<g id="node6" class="node">
<title>Z2</title>
<ellipse fill="none" stroke="black" cx="491.02" cy="-188" rx="27" ry="18"/>
<text text-anchor="middle" x="491.02" y="-184.3" font-family="Times New Roman,serif" font-size="14.00">Z2</text>
</g>
<!-- COMMON GENERA&#45;&gt;Z2 -->
<g id="edge5" class="edge">
<title>COMMON GENERA&#45;&gt;Z2</title>
<path fill="none" stroke="black" d="M106.44,-271.87C125.07,-249.02 160.66,-210.82 201.28,-195 287.32,-161.49 398.97,-172.57 454.88,-181.42"/>
<polygon fill="black" stroke="black" points="454.53,-184.91 464.97,-183.1 455.68,-178.01 454.53,-184.91"/>
<text text-anchor="middle" x="286.78" y="-228.8" font-family="Times New Roman,serif" font-size="14.00">Freshwater nematodes with</text>
<text text-anchor="middle" x="286.78" y="-213.8" font-family="Times New Roman,serif" font-size="14.00">spear, median bulb</text>
<text text-anchor="middle" x="286.78" y="-198.8" font-family="Times New Roman,serif" font-size="14.00">absent</text>
</g>
<!-- Z3 -->
<g id="node7" class="node">
<title>Z3</title>
<ellipse fill="none" stroke="black" cx="491.02" cy="-134" rx="27" ry="18"/>
<text text-anchor="middle" x="491.02" y="-130.3" font-family="Times New Roman,serif" font-size="14.00">Z3</text>
</g>
<!-- COMMON GENERA&#45;&gt;Z3 -->
<g id="edge6" class="edge">
<title>COMMON GENERA&#45;&gt;Z3</title>
<path fill="none" stroke="black" d="M99.21,-272.06C112.53,-238.68 146.2,-167.83 201.28,-139 283.87,-95.77 398.8,-112.7 455.53,-125.2"/>
<polygon fill="black" stroke="black" points="454.9,-128.65 465.43,-127.47 456.46,-121.82 454.9,-128.65"/>
<text text-anchor="middle" x="286.78" y="-157.8" font-family="Times New Roman,serif" font-size="14.00">Freshwater nematodes without</text>
<text text-anchor="middle" x="286.78" y="-142.8" font-family="Times New Roman,serif" font-size="14.00">stylet or spear</text>
</g>
<!-- Oesophagal glands overlapping
 -->
<g id="node8" class="node">
<title>Oesophagal glands overlapping
</title>
<ellipse fill="none" stroke="black" cx="752.9" cy="-567" rx="124.28" ry="18"/>
<text text-anchor="middle" x="752.9" y="-563.3" font-family="Times New Roman,serif" font-size="14.00">Oesophagal glands overlapping</text>
</g>
<!-- Tl&#45;&gt;Oesophagal glands overlapping
 -->
<g id="edge7" class="edge">
<title>Tl&#45;&gt;Oesophagal glands overlapping
</title>
<path fill="none" stroke="black" d="M516.28,-451.64C536.77,-457.57 566.71,-467.01 591.77,-478 635.64,-497.25 683.33,-524.66 715.15,-543.96"/>
<polygon fill="black" stroke="black" points="713.73,-547.2 724.09,-549.42 717.38,-541.22 713.73,-547.2"/>
</g>
<!-- Oesophagal glands not
overlapping
 -->
<g id="node21" class="node">
<title>Oesophagal glands not
overlapping
</title>
<ellipse fill="none" stroke="black" cx="752.9" cy="-320" rx="101.65" ry="26.74"/>
<text text-anchor="middle" x="752.9" y="-323.8" font-family="Times New Roman,serif" font-size="14.00">Oesophagal glands not</text>
<text text-anchor="middle" x="752.9" y="-308.8" font-family="Times New Roman,serif" font-size="14.00">overlapping</text>
</g>
<!-- Tl&#45;&gt;Oesophagal glands not
overlapping
 -->
<g id="edge20" class="edge">
<title>Tl&#45;&gt;Oesophagal glands not
overlapping
</title>
<path fill="none" stroke="black" d="M515.3,-436.47C535.7,-428.8 566.04,-416.94 591.77,-405 628.66,-387.87 669.12,-366.37 700.14,-349.28"/>
<polygon fill="black" stroke="black" points="701.98,-352.26 709.04,-344.36 698.59,-346.14 701.98,-352.26"/>
</g>
<!-- Two gonads
 -->
<g id="node9" class="node">
<title>Two gonads
</title>
<ellipse fill="none" stroke="black" cx="970.59" cy="-772" rx="56.59" ry="18"/>
<text text-anchor="middle" x="970.59" y="-768.3" font-family="Times New Roman,serif" font-size="14.00">Two gonads</text>
</g>
<!-- Oesophagal glands overlapping
&#45;&gt;Two gonads
 -->
<g id="edge8" class="edge">
<title>Oesophagal glands overlapping
&#45;&gt;Two gonads
</title>
<path fill="none" stroke="black" d="M772.67,-584.83C811.44,-621.68 900.42,-706.25 944.24,-747.91"/>
<polygon fill="black" stroke="black" points="941.97,-750.58 951.63,-754.93 946.79,-745.51 941.97,-750.58"/>
</g>
<!-- One gonad1
 -->
<g id="node13" class="node">
<title>One gonad1
</title>
<ellipse fill="none" stroke="black" cx="970.59" cy="-567" rx="50.89" ry="18"/>
<text text-anchor="middle" x="970.59" y="-563.3" font-family="Times New Roman,serif" font-size="14.00">One gonad</text>
</g>
<!-- Oesophagal glands overlapping
&#45;&gt;One gonad1
 -->
<g id="edge12" class="edge">
<title>Oesophagal glands overlapping
&#45;&gt;One gonad1
</title>
<path fill="none" stroke="black" d="M877.18,-567C888.25,-567 899.09,-567 909.23,-567"/>
<polygon fill="black" stroke="black" points="909.53,-570.5 919.53,-567 909.53,-563.5 909.53,-570.5"/>
</g>
<!-- Hoplolaimidae; head frame
strongly developed, body
Spiral&#45;shaped
 -->
<g id="node10" class="node">
<title>Hoplolaimidae; head frame
strongly developed, body
Spiral&#45;shaped
</title>
<ellipse fill="none" stroke="black" cx="1199.9" cy="-906" rx="117.26" ry="37.45"/>
<text text-anchor="middle" x="1199.9" y="-917.3" font-family="Times New Roman,serif" font-size="14.00">Hoplolaimidae; head frame</text>
<text text-anchor="middle" x="1199.9" y="-902.3" font-family="Times New Roman,serif" font-size="14.00">strongly developed, body</text>
<text text-anchor="middle" x="1199.9" y="-887.3" font-family="Times New Roman,serif" font-size="14.00">Spiral&#45;shaped</text>
</g>
<!-- Two gonads
&#45;&gt;Hoplolaimidae; head frame
strongly developed, body
Spiral&#45;shaped
 -->
<g id="edge9" class="edge">
<title>Two gonads
&#45;&gt;Hoplolaimidae; head frame
strongly developed, body
Spiral&#45;shaped
</title>
<path fill="none" stroke="black" d="M986.25,-789.66C1003.21,-809.07 1032.83,-840.02 1064.13,-859 1075.73,-866.03 1088.52,-872.2 1101.47,-877.56"/>
<polygon fill="black" stroke="black" points="1100.33,-880.87 1110.92,-881.32 1102.92,-874.37 1100.33,-880.87"/>
</g>
<!-- Helicotylenchus; tail often
with little tip,
ventrally overlapping
 -->
<g id="node11" class="node">
<title>Helicotylenchus; tail often
with little tip,
ventrally overlapping
</title>
<ellipse fill="none" stroke="black" cx="1199.9" cy="-813" rx="113.69" ry="37.45"/>
<text text-anchor="middle" x="1199.9" y="-824.3" font-family="Times New Roman,serif" font-size="14.00">Helicotylenchus; tail often</text>
<text text-anchor="middle" x="1199.9" y="-809.3" font-family="Times New Roman,serif" font-size="14.00">with little tip,</text>
<text text-anchor="middle" x="1199.9" y="-794.3" font-family="Times New Roman,serif" font-size="14.00">ventrally overlapping</text>
</g>
<!-- Two gonads
&#45;&gt;Helicotylenchus; tail often
with little tip,
ventrally overlapping
 -->
<g id="edge10" class="edge">
<title>Two gonads
&#45;&gt;Helicotylenchus; tail often
with little tip,
ventrally overlapping
</title>
<path fill="none" stroke="black" d="M1020.07,-780.75C1040.47,-784.42 1065.1,-788.87 1089.47,-793.26"/>
<polygon fill="black" stroke="black" points="1089.05,-796.74 1099.52,-795.07 1090.3,-789.85 1089.05,-796.74"/>
</g>
<!-- Rotylenchus; tail without
tip, dorsal overlap
 -->
<g id="node12" class="node">
<title>Rotylenchus; tail without
tip, dorsal overlap
</title>
<ellipse fill="none" stroke="black" cx="1199.9" cy="-731" rx="109.7" ry="26.74"/>
<text text-anchor="middle" x="1199.9" y="-734.8" font-family="Times New Roman,serif" font-size="14.00">Rotylenchus; tail without</text>
<text text-anchor="middle" x="1199.9" y="-719.8" font-family="Times New Roman,serif" font-size="14.00">tip, dorsal overlap</text>
</g>
<!-- Two gonads
&#45;&gt;Rotylenchus; tail without
tip, dorsal overlap
 -->
<g id="edge11" class="edge">
<title>Two gonads
&#45;&gt;Rotylenchus; tail without
tip, dorsal overlap
</title>
<path fill="none" stroke="black" d="M1020.07,-763.25C1043.75,-758.98 1073.13,-753.69 1101.18,-748.63"/>
<polygon fill="black" stroke="black" points="1101.82,-752.07 1111.04,-746.85 1100.58,-745.18 1101.82,-752.07"/>
</g>
<!-- Pratylenchidae; short stylet
strongly developed, tail
blunt
 -->
<g id="node14" class="node">
<title>Pratylenchidae; short stylet
strongly developed, tail
blunt
</title>
<ellipse fill="none" stroke="black" cx="1199.9" cy="-649" rx="118.17" ry="37.45"/>
<text text-anchor="middle" x="1199.9" y="-660.3" font-family="Times New Roman,serif" font-size="14.00">Pratylenchidae; short stylet</text>
<text text-anchor="middle" x="1199.9" y="-645.3" font-family="Times New Roman,serif" font-size="14.00">strongly developed, tail</text>
<text text-anchor="middle" x="1199.9" y="-630.3" font-family="Times New Roman,serif" font-size="14.00">blunt</text>
</g>
<!-- One gonad1
&#45;&gt;Pratylenchidae; short stylet
strongly developed, tail
blunt
 -->
<g id="edge13" class="edge">
<title>One gonad1
&#45;&gt;Pratylenchidae; short stylet
strongly developed, tail
blunt
</title>
<path fill="none" stroke="black" d="M1004.87,-580.34C1022.43,-587.27 1044.38,-595.79 1064.13,-603 1078.33,-608.18 1093.42,-613.51 1108.18,-618.62"/>
<polygon fill="black" stroke="black" points="1107.23,-621.99 1117.82,-621.94 1109.51,-615.37 1107.23,-621.99"/>
</g>
<!-- Anguinidae; stylet weak,
tail conical
 -->
<g id="node16" class="node">
<title>Anguinidae; stylet weak,
tail conical
</title>
<ellipse fill="none" stroke="black" cx="1199.9" cy="-567" rx="107.46" ry="26.74"/>
<text text-anchor="middle" x="1199.9" y="-570.8" font-family="Times New Roman,serif" font-size="14.00">Anguinidae; stylet weak,</text>
<text text-anchor="middle" x="1199.9" y="-555.8" font-family="Times New Roman,serif" font-size="14.00">tail conical</text>
</g>
<!-- One gonad1
&#45;&gt;Anguinidae; stylet weak,
tail conical
 -->
<g id="edge15" class="edge">
<title>One gonad1
&#45;&gt;Anguinidae; stylet weak,
tail conical
</title>
<path fill="none" stroke="black" d="M1021.47,-567C1039.52,-567 1060.75,-567 1082.12,-567"/>
<polygon fill="black" stroke="black" points="1082.27,-570.5 1092.27,-567 1082.27,-563.5 1082.27,-570.5"/>
</g>
<!-- Aphelenchoididae; median bulb
light&#45;refracting, stylet weak
 -->
<g id="node18" class="node">
<title>Aphelenchoididae; median bulb
light&#45;refracting, stylet weak
</title>
<ellipse fill="none" stroke="black" cx="1199.9" cy="-495" rx="135.53" ry="26.74"/>
<text text-anchor="middle" x="1199.9" y="-498.8" font-family="Times New Roman,serif" font-size="14.00">Aphelenchoididae; median bulb</text>
<text text-anchor="middle" x="1199.9" y="-483.8" font-family="Times New Roman,serif" font-size="14.00">light&#45;refracting, stylet weak</text>
</g>
<!-- One gonad1
&#45;&gt;Aphelenchoididae; median bulb
light&#45;refracting, stylet weak
 -->
<g id="edge17" class="edge">
<title>One gonad1
&#45;&gt;Aphelenchoididae; median bulb
light&#45;refracting, stylet weak
</title>
<path fill="none" stroke="black" d="M1004.25,-553.28C1021.83,-546.16 1043.98,-537.59 1064.13,-531 1077.19,-526.73 1091.08,-522.59 1104.79,-518.72"/>
<polygon fill="black" stroke="black" points="1106.03,-522.01 1114.73,-515.96 1104.16,-515.26 1106.03,-522.01"/>
</g>
<!-- Pratylenchus; lip region
flattened
 -->
<g id="node15" class="node">
<title>Pratylenchus; lip region
flattened
</title>
<ellipse fill="none" stroke="black" cx="1520.45" cy="-649" rx="103.89" ry="26.74"/>
<text text-anchor="middle" x="1520.45" y="-652.8" font-family="Times New Roman,serif" font-size="14.00">Pratylenchus; lip region</text>
<text text-anchor="middle" x="1520.45" y="-637.8" font-family="Times New Roman,serif" font-size="14.00">flattened</text>
</g>
<!-- Pratylenchidae; short stylet
strongly developed, tail
blunt
&#45;&gt;Pratylenchus; lip region
flattened
 -->
<g id="edge14" class="edge">
<title>Pratylenchidae; short stylet
strongly developed, tail
blunt
&#45;&gt;Pratylenchus; lip region
flattened
</title>
<path fill="none" stroke="black" d="M1318.16,-649C1346.96,-649 1377.74,-649 1406.34,-649"/>
<polygon fill="black" stroke="black" points="1406.36,-652.5 1416.36,-649 1406.36,-645.5 1406.36,-652.5"/>
</g>
<!-- Pseudhalenchus; median bulb
weakly developed
 -->
<g id="node17" class="node">
<title>Pseudhalenchus; median bulb
weakly developed
</title>
<ellipse fill="none" stroke="black" cx="1520.45" cy="-572" rx="128.89" ry="26.74"/>
<text text-anchor="middle" x="1520.45" y="-575.8" font-family="Times New Roman,serif" font-size="14.00">Pseudhalenchus; median bulb</text>
<text text-anchor="middle" x="1520.45" y="-560.8" font-family="Times New Roman,serif" font-size="14.00">weakly developed</text>
</g>
<!-- Anguinidae; stylet weak,
tail conical
&#45;&gt;Pseudhalenchus; median bulb
weakly developed
 -->
<g id="edge16" class="edge">
<title>Anguinidae; stylet weak,
tail conical
&#45;&gt;Pseudhalenchus; median bulb
weakly developed
</title>
<path fill="none" stroke="black" d="M1307.41,-568.67C1331.26,-569.05 1356.88,-569.45 1381.79,-569.84"/>
<polygon fill="black" stroke="black" points="1381.98,-573.34 1392.03,-570 1382.09,-566.34 1381.98,-573.34"/>
</g>
<!-- Aphelenchoides; tail conical,
often with mucro
 -->
<g id="node19" class="node">
<title>Aphelenchoides; tail conical,
often with mucro
</title>
<ellipse fill="none" stroke="black" cx="1520.45" cy="-500" rx="124.4" ry="26.74"/>
<text text-anchor="middle" x="1520.45" y="-503.8" font-family="Times New Roman,serif" font-size="14.00">Aphelenchoides; tail conical,</text>
<text text-anchor="middle" x="1520.45" y="-488.8" font-family="Times New Roman,serif" font-size="14.00">often with mucro</text>
</g>
<!-- Aphelenchoididae; median bulb
light&#45;refracting, stylet weak
&#45;&gt;Aphelenchoides; tail conical,
often with mucro
 -->
<g id="edge18" class="edge">
<title>Aphelenchoididae; median bulb
light&#45;refracting, stylet weak
&#45;&gt;Aphelenchoides; tail conical,
often with mucro
</title>
<path fill="none" stroke="black" d="M1335.53,-497.11C1352.19,-497.37 1369.23,-497.64 1385.87,-497.9"/>
<polygon fill="black" stroke="black" points="1386.13,-501.41 1396.18,-498.07 1386.24,-494.41 1386.13,-501.41"/>
</g>
<!-- Aphelenchus; tail bluntly
rounded
 -->
<g id="node20" class="node">
<title>Aphelenchus; tail bluntly
rounded
</title>
<ellipse fill="none" stroke="black" cx="1520.45" cy="-428" rx="108.38" ry="26.74"/>
<text text-anchor="middle" x="1520.45" y="-431.8" font-family="Times New Roman,serif" font-size="14.00">Aphelenchus; tail bluntly</text>
<text text-anchor="middle" x="1520.45" y="-416.8" font-family="Times New Roman,serif" font-size="14.00">rounded</text>
</g>
<!-- Aphelenchoididae; median bulb
light&#45;refracting, stylet weak
&#45;&gt;Aphelenchus; tail bluntly
rounded
 -->
<g id="edge19" class="edge">
<title>Aphelenchoididae; median bulb
light&#45;refracting, stylet weak
&#45;&gt;Aphelenchus; tail bluntly
rounded
</title>
<path fill="none" stroke="black" d="M1293.89,-475.44C1335.97,-466.59 1385.56,-456.16 1427.51,-447.34"/>
<polygon fill="black" stroke="black" points="1428.38,-450.73 1437.45,-445.25 1426.94,-443.88 1428.38,-450.73"/>
</g>
<!-- Two gonads1
 -->
<g id="node22" class="node">
<title>Two gonads1
</title>
<ellipse fill="none" stroke="black" cx="970.59" cy="-320" rx="56.59" ry="18"/>
<text text-anchor="middle" x="970.59" y="-316.3" font-family="Times New Roman,serif" font-size="14.00">Two gonads</text>
</g>
<!-- Oesophagal glands not
overlapping
&#45;&gt;Two gonads1
 -->
<g id="edge21" class="edge">
<title>Oesophagal glands not
overlapping
&#45;&gt;Two gonads1
</title>
<path fill="none" stroke="black" d="M854.8,-320C871.53,-320 888.48,-320 904.04,-320"/>
<polygon fill="black" stroke="black" points="904.04,-323.5 914.04,-320 904.04,-316.5 904.04,-323.5"/>
</g>
<!-- One gonad
 -->
<g id="node27" class="node">
<title>One gonad
</title>
<ellipse fill="none" stroke="black" cx="970.59" cy="-221" rx="50.89" ry="18"/>
<text text-anchor="middle" x="970.59" y="-217.3" font-family="Times New Roman,serif" font-size="14.00">One gonad</text>
</g>
<!-- Oesophagal glands not
overlapping
&#45;&gt;One gonad
 -->
<g id="edge26" class="edge">
<title>Oesophagal glands not
overlapping
&#45;&gt;One gonad
</title>
<path fill="none" stroke="black" d="M804.47,-296.79C842.49,-279.34 893.87,-255.75 929.17,-239.55"/>
<polygon fill="black" stroke="black" points="931.05,-242.54 938.67,-235.19 928.13,-236.18 931.05,-242.54"/>
</g>
<!-- Dolichodoridae; tail bluntly
rounded
 -->
<g id="node23" class="node">
<title>Dolichodoridae; tail bluntly
rounded
</title>
<ellipse fill="none" stroke="black" cx="1199.9" cy="-320" rx="118.17" ry="26.74"/>
<text text-anchor="middle" x="1199.9" y="-323.8" font-family="Times New Roman,serif" font-size="14.00">Dolichodoridae; tail bluntly</text>
<text text-anchor="middle" x="1199.9" y="-308.8" font-family="Times New Roman,serif" font-size="14.00">rounded</text>
</g>
<!-- Two gonads1
&#45;&gt;Dolichodoridae; tail bluntly
rounded
 -->
<g id="edge22" class="edge">
<title>Two gonads1
&#45;&gt;Dolichodoridae; tail bluntly
rounded
</title>
<path fill="none" stroke="black" d="M1027.19,-320C1040.78,-320 1055.88,-320 1071.32,-320"/>
<polygon fill="black" stroke="black" points="1071.51,-323.5 1081.51,-320 1071.51,-316.5 1071.51,-323.5"/>
</g>
<!-- Dolichorynchus; with longitudinal
grooves
 -->
<g id="node24" class="node">
<title>Dolichorynchus; with longitudinal
grooves
</title>
<ellipse fill="none" stroke="black" cx="1520.45" cy="-356" rx="143.59" ry="26.74"/>
<text text-anchor="middle" x="1520.45" y="-359.8" font-family="Times New Roman,serif" font-size="14.00">Dolichorynchus; with longitudinal</text>
<text text-anchor="middle" x="1520.45" y="-344.8" font-family="Times New Roman,serif" font-size="14.00">grooves</text>
</g>
<!-- Dolichodoridae; tail bluntly
rounded
&#45;&gt;Dolichorynchus; with longitudinal
grooves
 -->
<g id="edge23" class="edge">
<title>Dolichodoridae; tail bluntly
rounded
&#45;&gt;Dolichorynchus; with longitudinal
grooves
</title>
<path fill="none" stroke="black" d="M1306.09,-331.89C1331.96,-334.81 1359.99,-337.98 1386.97,-341.03"/>
<polygon fill="black" stroke="black" points="1386.92,-344.54 1397.25,-342.19 1387.7,-337.59 1386.92,-344.54"/>
</g>
<!-- Merlinius lateral field
with six lines
 -->
<g id="node25" class="node">
<title>Merlinius lateral field
with six lines
</title>
<ellipse fill="none" stroke="black" cx="1520.45" cy="-284" rx="92.76" ry="26.74"/>
<text text-anchor="middle" x="1520.45" y="-287.8" font-family="Times New Roman,serif" font-size="14.00">Merlinius lateral field</text>
<text text-anchor="middle" x="1520.45" y="-272.8" font-family="Times New Roman,serif" font-size="14.00">with six lines</text>
</g>
<!-- Dolichodoridae; tail bluntly
rounded
&#45;&gt;Merlinius lateral field
with six lines
 -->
<g id="edge24" class="edge">
<title>Dolichodoridae; tail bluntly
rounded
&#45;&gt;Merlinius lateral field
with six lines
</title>
<path fill="none" stroke="black" d="M1306.09,-308.11C1344.02,-303.83 1386.6,-299.01 1423.68,-294.82"/>
<polygon fill="black" stroke="black" points="1424.45,-298.26 1433.99,-293.66 1423.66,-291.3 1424.45,-298.26"/>
</g>
<!-- Tylenchorynchus and Bitylenchus;
four lines
 -->
<g id="node26" class="node">
<title>Tylenchorynchus and Bitylenchus;
four lines
</title>
<ellipse fill="none" stroke="black" cx="1520.45" cy="-212" rx="147.57" ry="26.74"/>
<text text-anchor="middle" x="1520.45" y="-215.8" font-family="Times New Roman,serif" font-size="14.00">Tylenchorynchus and Bitylenchus;</text>
<text text-anchor="middle" x="1520.45" y="-200.8" font-family="Times New Roman,serif" font-size="14.00">four lines</text>
</g>
<!-- Dolichodoridae; tail bluntly
rounded
&#45;&gt;Tylenchorynchus and Bitylenchus;
four lines
 -->
<g id="edge25" class="edge">
<title>Dolichodoridae; tail bluntly
rounded
&#45;&gt;Tylenchorynchus and Bitylenchus;
four lines
</title>
<path fill="none" stroke="black" d="M1291.15,-302.76C1306.55,-297.92 1321.97,-291.77 1335.66,-284 1355.62,-272.67 1352.6,-259.12 1372.66,-248 1382.51,-242.54 1393.19,-237.9 1404.13,-233.96"/>
<polygon fill="black" stroke="black" points="1405.47,-237.2 1413.81,-230.67 1403.21,-230.57 1405.47,-237.2"/>
</g>
<!-- tail long, acute
 -->
<g id="node28" class="node">
<title>tail long, acute
</title>
<ellipse fill="none" stroke="black" cx="1199.9" cy="-257" rx="63.09" ry="18"/>
<text text-anchor="middle" x="1199.9" y="-253.3" font-family="Times New Roman,serif" font-size="14.00">tail long, acute</text>
</g>
<!-- One gonad
&#45;&gt;tail long, acute
 -->
<g id="edge27" class="edge">
<title>One gonad
&#45;&gt;tail long, acute
</title>
<path fill="none" stroke="black" d="M1017.31,-228.24C1050.85,-233.55 1096.85,-240.84 1134.16,-246.75"/>
<polygon fill="black" stroke="black" points="1134.01,-250.27 1144.44,-248.37 1135.11,-243.35 1134.01,-250.27"/>
</g>
<!-- body with conspicuously
broad annules, little,
plump nematodes
 -->
<g id="node31" class="node">
<title>body with conspicuously
broad annules, little,
plump nematodes
</title>
<ellipse fill="none" stroke="black" cx="1199.9" cy="-184" rx="111.95" ry="37.45"/>
<text text-anchor="middle" x="1199.9" y="-195.3" font-family="Times New Roman,serif" font-size="14.00">body with conspicuously</text>
<text text-anchor="middle" x="1199.9" y="-180.3" font-family="Times New Roman,serif" font-size="14.00">broad annules, little,</text>
<text text-anchor="middle" x="1199.9" y="-165.3" font-family="Times New Roman,serif" font-size="14.00">plump nematodes</text>
</g>
<!-- One gonad
&#45;&gt;body with conspicuously
broad annules, little,
plump nematodes
 -->
<g id="edge32" class="edge">
<title>One gonad
&#45;&gt;body with conspicuously
broad annules, little,
plump nematodes
</title>
<path fill="none" stroke="black" d="M1017.04,-213.6C1037.86,-210.21 1063.52,-206.04 1088.93,-201.9"/>
<polygon fill="black" stroke="black" points="1089.72,-205.32 1099.03,-200.26 1088.6,-198.41 1089.72,-205.32"/>
</g>
<!-- little C&#45;shaped nematodes,
procorpus gently widens
into median bulb
 -->
<g id="node35" class="node">
<title>little C&#45;shaped nematodes,
procorpus gently widens
into median bulb
</title>
<ellipse fill="none" stroke="black" cx="1199.9" cy="-91" rx="115.93" ry="37.45"/>
<text text-anchor="middle" x="1199.9" y="-102.3" font-family="Times New Roman,serif" font-size="14.00">little C&#45;shaped nematodes,</text>
<text text-anchor="middle" x="1199.9" y="-87.3" font-family="Times New Roman,serif" font-size="14.00">procorpus gently widens</text>
<text text-anchor="middle" x="1199.9" y="-72.3" font-family="Times New Roman,serif" font-size="14.00">into median bulb</text>
</g>
<!-- One gonad
&#45;&gt;little C&#45;shaped nematodes,
procorpus gently widens
into median bulb
 -->
<g id="edge34" class="edge">
<title>One gonad
&#45;&gt;little C&#45;shaped nematodes,
procorpus gently widens
into median bulb
</title>
<path fill="none" stroke="black" d="M986.73,-203.86C1003.89,-185.35 1033.47,-156.1 1064.13,-138 1076.07,-130.95 1089.22,-124.74 1102.48,-119.34"/>
<polygon fill="black" stroke="black" points="1104.12,-122.46 1112.15,-115.55 1101.56,-115.94 1104.12,-122.46"/>
</g>
<!-- XX -->
<g id="node29" class="node">
<title>XX</title>
<ellipse fill="none" stroke="black" cx="1520.45" cy="-18" rx="27" ry="18"/>
<text text-anchor="middle" x="1520.45" y="-14.3" font-family="Times New Roman,serif" font-size="14.00">XX</text>
</g>
<!-- tail long, acute
&#45;&gt;XX -->
<g id="edge28" class="edge">
<title>tail long, acute
&#45;&gt;XX</title>
<path fill="none" stroke="black" d="M1262.39,-254.61C1286.82,-251.23 1314.16,-244.21 1335.66,-230 1359.94,-213.96 1354.49,-198.72 1372.66,-176 1413.67,-124.74 1467.36,-69.58 1497.12,-39.91"/>
<polygon fill="black" stroke="black" points="1499.87,-42.11 1504.5,-32.58 1494.94,-37.14 1499.87,-42.11"/>
</g>
<!-- xxx -->
<g id="node30" class="node">
<title>xxx</title>
<ellipse fill="none" stroke="black" cx="1199.9" cy="-18" rx="27" ry="18"/>
<text text-anchor="middle" x="1199.9" y="-14.3" font-family="Times New Roman,serif" font-size="14.00">xxx</text>
</g>
<!-- xxx&#45;&gt;XX -->
<g id="edge29" class="edge">
<title>xxx&#45;&gt;XX</title>
<path fill="none" stroke="black" d="M1224.58,-10.49C1280.44,-2.93 1420.6,-2.53 1485.5,-9.27"/>
<polygon fill="black" stroke="black" points="1485.27,-12.77 1495.61,-10.47 1486.09,-5.82 1485.27,-12.77"/>
</g>
<!-- xxx&#45;&gt;XX -->
<g id="edge30" class="edge">
<title>xxx&#45;&gt;XX</title>
<path fill="none" stroke="black" d="M1226.97,-18C1283.55,-18 1417.76,-18 1482.82,-18"/>
<polygon fill="black" stroke="black" points="1483.02,-21.5 1493.02,-18 1483.02,-14.5 1483.02,-21.5"/>
</g>
<!-- xxx&#45;&gt;XX -->
<g id="edge31" class="edge">
<title>xxx&#45;&gt;XX</title>
<path fill="none" stroke="black" d="M1224.58,-25.51C1280.44,-33.07 1420.6,-33.47 1485.5,-26.73"/>
<polygon fill="black" stroke="black" points="1486.09,-30.18 1495.61,-25.53 1485.27,-23.23 1486.09,-30.18"/>
</g>
<!-- One gonad2
 -->
<g id="node32" class="node">
<title>One gonad2
</title>
<ellipse fill="none" stroke="black" cx="91.64" cy="-505" rx="56.59" ry="18"/>
<text text-anchor="middle" x="91.64" y="-501.3" font-family="Times New Roman,serif" font-size="14.00">Two gonads</text>
</g>
<!-- double, annulated cuticle
 -->
<g id="node34" class="node">
<title>double, annulated cuticle
</title>
<ellipse fill="none" stroke="black" cx="491.02" cy="-505" rx="100.98" ry="18"/>
<text text-anchor="middle" x="491.02" y="-501.3" font-family="Times New Roman,serif" font-size="14.00">double, annulated cuticle</text>
</g>
<!-- One gonad2
&#45;&gt;double, annulated cuticle
 -->
<g id="edge33" class="edge">
<title>One gonad2
&#45;&gt;double, annulated cuticle
</title>
<path fill="none" stroke="black" d="M148.31,-505C208.11,-505 304.67,-505 379.91,-505"/>
<polygon fill="black" stroke="black" points="379.91,-508.5 389.91,-505 379.91,-501.5 379.91,-508.5"/>
</g>
<!-- Two gonads2
 -->
<g id="node33" class="node">
<title>Two gonads2
</title>
<ellipse fill="none" stroke="black" cx="91.64" cy="-559" rx="56.59" ry="18"/>
<text text-anchor="middle" x="91.64" y="-555.3" font-family="Times New Roman,serif" font-size="14.00">Two gonads</text>
</g>
</g>
</svg>
