<?xml version="1.0" encoding="UTF-8" standalone="no"?>
<svg
   height="54.361118"
   width="130.74347"
   fill="#000000"
   viewBox="0 0 104.59478 43.488895"
   version="1.1"
   x="0px"
   y="0px"
   id="svg4"
   sodipodi:docname="Conductor.svg"
   inkscape:version="1.1 (c68e22c387, 2021-05-23)"
   xmlns:inkscape="http://www.inkscape.org/namespaces/inkscape"
   xmlns:sodipodi="http://sodipodi.sourceforge.net/DTD/sodipodi-0.dtd"
   xmlns="http://www.w3.org/2000/svg"
   xmlns:svg="http://www.w3.org/2000/svg">
  <defs
     id="defs8" />
  <sodipodi:namedview
     id="namedview6"
     pagecolor="#ffffff"
     bordercolor="#666666"
     borderopacity="1.0"
     inkscape:pageshadow="2"
     inkscape:pageopacity="0.0"
     inkscape:pagecheckerboard="0"
     showgrid="false"
     inkscape:zoom="8.32"
     inkscape:cx="71.574519"
     inkscape:cy="28.305288"
     inkscape:window-width="1920"
     inkscape:window-height="1017"
     inkscape:window-x="-8"
     inkscape:window-y="-3"
     inkscape:window-maximized="1"
     inkscape:current-layer="svg4" />
  <path
     d="m 65.426134,23.586083 c 0,0 -0.005,-0.51888 0.21301,-0.65542 0.44788,-0.30041 0.96129,-0.46972 1.48017,-0.59535 0.6445,-0.14747 1.10329,-0.66088 1.69317,-0.92851 0.78651,-0.36049 1.63856,-0.58988 2.37591,-1.05414 -0.96674,-0.0874 -1.98265,0.0109 -2.8784,-0.42057 -0.47518,-0.21301 -0.96128,-0.52433 -1.15791,-1.03229 -0.10924,-0.45879 0.0328,-0.9449 0.17478,-1.38185 0.26217,-0.0546 0.5298,-0.10924 0.79743,-0.13108 0.66635,-0.0765 1.32177,0.19116 1.98812,0.13108 0.70458,-0.16385 1.43647,-0.1857 2.1629,-0.1857 0.18024,-0.20755 0.28947,-0.52434 0.54618,-0.6445 0.39326,0 0.77559,0.18024 1.13061,0.33863 0.49156,0.25125 1.05414,0.30041 1.5894,0.36595 0.93398,0.0492 1.92804,-0.15293 2.8074,0.26763 1.33922,0.89829 2.10214,1.096 3.40273,2.47422 0.42057,0.21302 0.91213,0.19117 1.37093,0.2731 0.93944,0.14747 1.9335,0.0328 2.82925,0.39871 0.97767,0.51888 1.43646,1.57848 1.82972,2.55069 0.12562,0.33318 0.42056,0.55711 0.6008,0.86298 0.29494,0.46972 0.44788,1.0159 0.77013,1.4747 0.29494,0.54618 0.63903,1.06506 0.99406,1.57301 0.23486,0.2731 0.46972,0.55711 0.62811,0.88483 0.17478,0.36048 0.57349,0.54072 0.74827,0.89574 0.1584,0.28948 0.39872,0.52434 0.5735,0.8029 0.29494,0.43694 0.55711,0.92851 1.01591,1.22345 0.26763,0.25125 0.61719,0.42057 0.988594,0.39872 0.80836,-0.0437 1.58941,0.27309 2.3923,0.19663 1.23984,-0.14201 2.48515,-0.0983 3.724992,-0.21302 0.7592,-0.0983 2.36458,-0.20788 3.12378,-0.33896 2.01435,0.3655 1.13329,9.58793 0.52337,11.59717 -2.91004,0.3064 -7.150502,1.72324 -8.737612,-0.28336 -0.19116,-0.34956 -0.0109,-1.89177 0.0874,-2.24133 0.97099,0.46855 -2.832384,-0.69485 -3.244344,-0.79743 -1.00499,0.0382 -1.96627,-0.35502 -2.95487,-0.46426 -0.2294,0.005 -0.4151,-0.13109 -0.6008,-0.23486 -0.62094,-0.0585 -1.75415,-0.0145 -2.08097,-0.0219 -1.04868,-0.0601 -2.03182,-0.48064 -2.98218,-0.90667 -0.78105,-0.48064 -1.56756,-0.96128 -2.31037,-1.50747 -0.39871,-0.31133 -0.72642,-0.71004 -1.15245,-0.98314 -0.77012,-0.5298 -1.43647,-1.22891 -2.29398,-1.62763 -0.82474,-0.39325 -1.7041,-0.67181 -2.55069,-1.01045 -1.04868,-0.48064 -2.02635,-1.09783 -3.07503,-1.56755 -0.63904,-0.37141 -1.37639,-0.66635 -1.84611,-1.26169 -0.4588,-0.55165 -0.25124,-1.33269 0,-1.94442 -0.54618,-0.37141 -1.08691,-0.77013 -1.55117,-1.25077 -0.16932,-0.1857 -0.36594,-0.33863 -0.57895,-0.46426 -0.95583,-0.58988 -1.91166,-1.18522 -2.86202,-1.7751 -0.60627,-0.38779 -1.82426,-1.12515 -1.82426,-1.12515 l -36.93218,-22.88745991 -0.17708,-0.3588 M 77.038064,23.809973 c -0.29494,0.79743 -0.98314,1.431 -1.77511,1.71502 -0.28401,0.67727 -0.75919,1.23438 -1.26169,1.75872 0.90667,0.25125 1.75326,0.68273 2.62716,1.03775 0.76466,0.30041 1.34362,0.92306 2.09735,1.24531 0.79197,0.24032 1.58394,0.48064 2.40322,0.62265 0.28402,-0.49703 0.58988,-0.9886 0.78105,-1.53478 0.14201,-0.43695 0.42602,-0.8029 0.64996,-1.19615 -0.0437,-0.4151 -0.42603,-0.69912 -0.69912,-0.97767 -0.55165,-0.54073 -1.37092,-0.6445 -1.92803,-1.18523 -0.25125,-0.1857 -0.3441,-0.4861 -0.47519,-0.75373 -0.80289,-0.21302 -1.82972,-0.0382 -2.4196,-0.73189 m -5.39086,0.1857 c -0.25124,0.0382 -0.53526,-0.0655 -0.76466,0.0819 -0.85205,0.57349 -1.87888,0.77558 -2.87294,0.96675 0.31679,0.22393 0.61719,0.55164 1.03229,0.56257 0.62265,0.12016 1.16884,0.48064 1.76418,0.69912 0.62812,-0.8029 1.1033,-1.72595 1.85158,-2.43599 -0.33864,0.0491 -0.67181,0.12562 -1.01045,0.12562 z"
     fill="#000000"
     stroke="#000000"
     stroke-width="0.0051205"
     id="path2"
     style="fill:#ffffff" />
  <path
     style="fill:#ffffff;stroke-width:0.0961536"
     d="m 97.012698,43.358737 c -0.66961,-0.117581 -1.473,-0.505769 -1.73978,-0.840644 -0.18739,-0.235216 -0.20091,-0.336935 -0.15026,-1.130312 0.0306,-0.479509 0.0836,-0.944653 0.11775,-1.033653 0.0432,-0.112623 0.0123,-0.16182 -0.10168,-0.16182 -0.0901,0 -0.85242,-0.194712 -1.694111,-0.432692 -0.84169,-0.237981 -1.671909,-0.432692 -1.844932,-0.432692 -0.173021,0 -0.918904,-0.134181 -1.657517,-0.29818 -0.978583,-0.217281 -1.734246,-0.3175 -2.785241,-0.369385 -1.297367,-0.06405 -1.541682,-0.105374 -2.43119,-0.411223 -1.04342,-0.358771 -2.608369,-1.235736 -3.502953,-1.962983 -1.437047,-1.168237 -2.647984,-2.103133 -3.090511,-2.386004 -0.414725,-0.2651 -2.608141,-1.206841 -2.810861,-1.206841 -0.03481,0 -1.042309,-0.507408 -2.238887,-1.127576 -3.218703,-1.668199 -3.53878,-2.058365 -2.947048,-3.592382 0.04085,-0.105898 -0.05592,-0.228626 -0.315976,-0.40072 -0.206173,-0.136439 -0.62998,-0.484199 -0.941793,-0.772801 C 68.48756,26.437725 65.627231,24.611644 59.705003,20.942828 33.119575,4.4731691 28.355658,1.509602 28.398051,1.4672087 c 0.04069,-0.04069 9.843528,5.8297801 31.065988,18.6039943 l 5.960959,3.588017 0.07531,-0.290648 c 0.09439,-0.364254 0.364005,-0.541758 1.353165,-0.890863 0.43132,-0.152226 1.043833,-0.442734 1.361141,-0.645575 0.317308,-0.20284 1.036482,-0.553027 1.598165,-0.778191 0.561684,-0.225166 1.124184,-0.488549 1.25,-0.585299 l 0.228758,-0.175906 -0.528846,-0.0051 c -1.548222,-0.01495 -2.702307,-0.377785 -3.274495,-1.029471 -0.292621,-0.333276 -0.304535,-0.378033 -0.257297,-0.966526 0.02724,-0.339387 0.09946,-0.666998 0.160488,-0.728022 0.07397,-0.07397 0.437995,-0.09999 1.092091,-0.07805 1.426105,0.04784 1.642839,0.04504 2.783105,-0.03592 1.02528,-0.0728 1.034516,-0.07566 1.278932,-0.396103 0.135407,-0.177527 0.307769,-0.322776 0.383028,-0.322776 0.07526,0 0.473297,0.135524 0.88453,0.301165 0.690177,0.277998 0.869743,0.306785 2.334233,0.374216 0.872596,0.04018 1.713273,0.122872 1.868171,0.183766 0.562492,0.221131 2.506105,1.495203 3.18742,2.08941 0.778123,0.678638 0.749757,0.670498 3.117486,0.89446 0.555289,0.05252 1.177531,0.143217 1.382762,0.201538 0.597488,0.169794 1.221549,0.877284 1.742394,1.975335 0.24817,0.523195 0.530065,1.037802 0.626434,1.143572 0.09637,0.105769 0.385885,0.603365 0.64337,1.105769 0.585852,1.143109 1.86655,3.098046 2.425165,3.701923 0.146763,0.158654 0.536919,0.677885 0.867017,1.153846 0.913124,1.316622 1.409536,1.682188 2.285733,1.683249 0.2529,2.89e-4 0.71944,0.04423 1.03674,0.09762 0.82073,0.138076 6.473882,-0.184738 7.756342,-0.442912 0.52364,-0.105415 0.909,0.384803 1.19454,1.519597 0.41338,1.642831 0.21326,7.10055 -0.34837,9.501056 l -0.1019,0.43553 -2.23107,0.35928 c -2.431952,0.391628 -3.767582,0.493413 -4.586842,0.349552 z M 81.905983,28.819286 c 0.376,-0.755162 0.683636,-1.42769 0.683636,-1.494504 0,-0.243433 -0.922316,-1.100692 -1.488822,-1.383806 -0.777469,-0.388543 -1.165541,-0.692382 -1.440357,-1.127718 -0.215514,-0.341396 -0.26694,-0.367806 -0.837715,-0.430228 -0.827497,-0.0905 -1.258694,-0.213307 -1.548038,-0.440906 l -0.243884,-0.191839 -0.245763,0.419362 c -0.278884,0.475879 -0.799992,0.965593 -1.261871,1.185848 -0.172304,0.08216 -0.379461,0.288177 -0.46035,0.457802 -0.08089,0.169627 -0.36944,0.575616 -0.641226,0.902199 l -0.494155,0.593788 0.250812,0.09536 c 0.137946,0.05245 0.274159,0.09536 0.302695,0.09536 0.253331,0 2.570886,1.094624 3.252905,1.536407 0.645723,0.418273 1.085046,0.621753 1.730769,0.801641 1.855593,0.516937 1.629819,0.611152 2.441364,-1.018762 z m -10.600787,-3.12217 c 0.250835,-0.356972 0.666899,-0.918335 0.924588,-1.247474 l 0.468527,-0.598435 -0.799538,0.05262 c -0.629348,0.04142 -0.953045,0.122082 -1.520693,0.378929 -0.636291,0.287908 -1.0587,0.418629 -2.163461,0.669521 l -0.288461,0.06551 0.332089,0.278885 c 0.182649,0.153386 0.485533,0.307066 0.673077,0.341512 0.187544,0.03445 0.665507,0.206562 1.062141,0.382481 0.396635,0.175919 0.751419,0.321121 0.788411,0.322669 0.03699,0.0015 0.272485,-0.289251 0.52332,-0.646222 z"
     id="path88" />
  <g
     id="g750"
     transform="matrix(0.17656083,0,0,0.17132961,-8.6461838,3.4093725)"
     style="fill:#ffffff">
    <g
       id="g748"
       style="fill:#ffffff">
      <g
         id="g746"
         style="fill:#ffffff">
        <path
           d="m 217,149.66 -11,5.68 -30.22,46.141 -38.33,-10.711 -14.09,7.261 -25.18,-18.25 -30.8,-8.641 -0.98,0.91 -0.82,1.01 -0.72,1.101 -0.6,1.189 -0.44,1.23 -0.32,1.28 -0.15,1.29 v 1.319 l 0.15,1.32 0.29,1.26 0.44,1.25 0.6,1.16 0.69,1.1 0.85,1.04 0.95,0.91 1.04,0.79 1.13,0.66 106.29,33.32 z M 51.9,136.4 l 0.41,1.61 0.54,1.53 0.69,1.48 0.82,1.41 0.95,1.32 1.07,1.23 66.98,45.979 63.53,-32.19 v -0.01 l 49.63,-25.15 3.9,1.57 v 2.39 l -17.27,8.92 -45.36,82.069 L 68.52,193.73 67.16,193 l -1.26,-0.81 -1.17,-0.95 -1.1,-1.03 -0.95,-1.17 -0.88,-1.25 -0.72,-1.32 -0.6,-1.38 -0.48,-1.42 -0.31,-1.47 -0.16,-1.51 -0.03,-1.511 0.09,-1.5 0.29,-1.479 0.41,-1.45 0.53,-1.41 0.67,-1.35 0.82,-1.26 0.94,-1.19 1.04,-1.1 1.14,-1 7.47,-6 -17.43,-12.66 -1.23,-1.261 -1.11,-1.38 -0.97,-1.479 -0.89,-1.53 -0.72,-1.61 -0.6,-1.66 -0.44,-1.7 -0.35,-1.76 -0.16,-1.75 -0.03,-1.76 0.13,-1.76 0.25,-1.76 0.4,-1.66 2.44,0.59 -0.35,1.6 -0.22,1.64 -0.06,1.63 0.09,1.63 z"
           id="path740"
           style="fill:#ffffff" />
        <polygon
           points="185.58,156.19 158.03,150.29 122.35,165.61 63.82,130.09 60.13,129.31 58.68,127.73 57.36,126.07 60.13,125.19 182.46,148.72 223.12,92.53 226.21,92.53 226.21,95.57 221.1,103.14 240.42,110.4 240.42,114.92 202.25,131.32 "
           id="polygon742"
           style="fill:#ffffff" />
        <polygon
           points="52,102.45 52.5,100.28 53.17,98.18 53.98,96.11 137.89,61.08 229.39,67.87 229.39,71.14 185.58,119.35 57.29,98.87 56.63,100.88 56.1,102.92 55.72,105 55.5,107.1 55.43,109.2 55.5,111.31 55.75,113.41 56.13,115.49 56.63,117.53 57.29,119.54 58.11,121.48 59.06,123.37 60.13,125.19 57.36,126.07 56.16,124.31 55.06,122.49 54.14,123.84 53.35,125.25 52.69,126.76 52.19,128.3 49.75,127.71 49.76,127.67 50.3,125.98 50.99,124.34 51.81,122.77 52.75,121.3 53.83,119.88 53.01,117.81 52.38,115.67 51.9,113.51 51.59,111.31 51.46,109.08 51.46,106.88 51.65,104.65 "
           id="polygon744"
           style="fill:#ffffff" />
      </g>
    </g>
  </g>
</svg>
