<?xml version="1.0" encoding="UTF-8" standalone="no"?>
<!DOCTYPE svg PUBLIC "-//W3C//DTD SVG 1.1//EN"
 "http://www.w3.org/Graphics/SVG/1.1/DTD/svg11.dtd">
<!-- Generated by graphviz version 5.0.0 (20220707.1540)
 -->
<!-- Title: Nematoda Key Pages: 1 -->
<svg width="1206pt" height="1196pt"
 viewBox="0.00 0.00 1206.17 1196.00" xmlns="http://www.w3.org/2000/svg" xmlns:xlink="http://www.w3.org/1999/xlink">
<g id="graph0" class="graph" transform="scale(1 1) rotate(0) translate(4 1192)">
<title>Nematoda Key</title>
<polygon fill="white" stroke="transparent" points="-4,4 -4,-1192 1202.17,-1192 1202.17,4 -4,4"/>
<!-- 000 -->
<g id="node1" class="node">
<title>000</title>
<ellipse fill="red" stroke="black" cx="87.68" cy="-78" rx="87.86" ry="48.17"/>
<text text-anchor="middle" x="87.68" y="-96.8" font-family="Times New Roman,serif" font-size="14.00">Key to the Families</text>
<text text-anchor="middle" x="87.68" y="-81.8" font-family="Times New Roman,serif" font-size="14.00">and Genera of the</text>
<text text-anchor="middle" x="87.68" y="-66.8" font-family="Times New Roman,serif" font-size="14.00">Order Dorylaimida</text>
<text text-anchor="middle" x="87.68" y="-51.8" font-family="Times New Roman,serif" font-size="14.00"> Andrassy 2009</text>
</g>
<!-- 001 -->
<g id="node2" class="node">
<title>001</title>
<ellipse fill="aqua" stroke="black" cx="239.36" cy="-78" rx="27" ry="18"/>
<text text-anchor="middle" x="239.36" y="-74.3" font-family="Times New Roman,serif" font-size="14.00">001</text>
</g>
<!-- 000&#45;&gt;001 -->
<g id="edge1" class="edge">
<title>000&#45;&gt;001</title>
<path fill="none" stroke="black" d="M175.75,-78C184.96,-78 193.92,-78 202.05,-78"/>
<polygon fill="black" stroke="black" points="202.2,-81.5 212.2,-78 202.2,-74.5 202.2,-81.5"/>
</g>
<!-- 002 -->
<g id="node3" class="node">
<title>002</title>
<ellipse fill="aqua" stroke="black" cx="509.07" cy="-120" rx="70.92" ry="37.45"/>
<text text-anchor="middle" x="509.07" y="-131.3" font-family="Times New Roman,serif" font-size="14.00">002</text>
<text text-anchor="middle" x="509.07" y="-116.3" font-family="Times New Roman,serif" font-size="14.00">Nygolaimina</text>
<text text-anchor="middle" x="509.07" y="-101.3" font-family="Times New Roman,serif" font-size="14.00">Nygolaimoidea</text>
</g>
<!-- 001&#45;&gt;002 -->
<g id="edge2" class="edge">
<title>001&#45;&gt;002</title>
<path fill="none" stroke="black" d="M260.88,-89.01C268.11,-92.44 276.42,-95.87 284.36,-98 331.03,-110.53 384.89,-116.09 428.07,-118.48"/>
<polygon fill="black" stroke="black" points="428.07,-121.99 438.24,-119 428.43,-115 428.07,-121.99"/>
<text text-anchor="middle" x="352.36" y="-180.8" font-family="Times New Roman,serif" font-size="14.00">Nygolaimina Stoma with</text>
<text text-anchor="middle" x="352.36" y="-165.8" font-family="Times New Roman,serif" font-size="14.00">subventral mural tooth,</text>
<text text-anchor="middle" x="352.36" y="-150.8" font-family="Times New Roman,serif" font-size="14.00">stoma wide, cardia</text>
<text text-anchor="middle" x="352.36" y="-135.8" font-family="Times New Roman,serif" font-size="14.00">with 3 gland</text>
<text text-anchor="middle" x="352.36" y="-120.8" font-family="Times New Roman,serif" font-size="14.00">cells</text>
</g>
<!-- 017 -->
<g id="node4" class="node">
<title>017</title>
<ellipse fill="none" stroke="black" cx="509.07" cy="-37" rx="27" ry="18"/>
<text text-anchor="middle" x="509.07" y="-33.3" font-family="Times New Roman,serif" font-size="14.00">017</text>
</g>
<!-- 001&#45;&gt;017 -->
<g id="edge3" class="edge">
<title>001&#45;&gt;017</title>
<path fill="none" stroke="black" d="M252.76,-62.01C260.7,-53.11 271.86,-42.87 284.36,-38 347.32,-13.5 428.01,-21.83 473.27,-29.69"/>
<polygon fill="black" stroke="black" points="472.7,-33.15 483.17,-31.5 473.96,-26.26 472.7,-33.15"/>
<text text-anchor="middle" x="352.36" y="-86.8" font-family="Times New Roman,serif" font-size="14.00">Dorylaimina Stoma with</text>
<text text-anchor="middle" x="352.36" y="-71.8" font-family="Times New Roman,serif" font-size="14.00">axial odontostyle, stoma</text>
<text text-anchor="middle" x="352.36" y="-56.8" font-family="Times New Roman,serif" font-size="14.00">narrow, cardia small,</text>
<text text-anchor="middle" x="352.36" y="-41.8" font-family="Times New Roman,serif" font-size="14.00">without gland cells</text>
</g>
<!-- 004 -->
<g id="node5" class="node">
<title>004</title>
<ellipse fill="aqua" stroke="black" cx="869.23" cy="-184" rx="54.39" ry="37.45"/>
<text text-anchor="middle" x="869.23" y="-195.3" font-family="Times New Roman,serif" font-size="14.00">004</text>
<text text-anchor="middle" x="869.23" y="-180.3" font-family="Times New Roman,serif" font-size="14.00">Nygellidae</text>
<text text-anchor="middle" x="869.23" y="-165.3" font-family="Times New Roman,serif" font-size="14.00">Nygelliinae</text>
</g>
<!-- 002&#45;&gt;004 -->
<g id="edge4" class="edge">
<title>002&#45;&gt;004</title>
<path fill="none" stroke="black" d="M558.49,-147.05C570.95,-152.92 584.58,-158.43 597.78,-162 666.82,-180.65 749.08,-184.92 804.6,-185.3"/>
<polygon fill="black" stroke="black" points="804.64,-188.8 814.65,-185.33 804.66,-181.8 804.64,-188.8"/>
<text text-anchor="middle" x="697.28" y="-263.8" font-family="Times New Roman,serif" font-size="14.00">Nygellidae Female reproductive</text>
<text text-anchor="middle" x="697.28" y="-248.8" font-family="Times New Roman,serif" font-size="14.00">system monovarial, opisthodelphic;</text>
<text text-anchor="middle" x="697.28" y="-233.8" font-family="Times New Roman,serif" font-size="14.00">basal part of</text>
<text text-anchor="middle" x="697.28" y="-218.8" font-family="Times New Roman,serif" font-size="14.00">esophagus with a</text>
<text text-anchor="middle" x="697.28" y="-203.8" font-family="Times New Roman,serif" font-size="14.00">sheath of spiral</text>
<text text-anchor="middle" x="697.28" y="-188.8" font-family="Times New Roman,serif" font-size="14.00">muscles</text>
</g>
<!-- 003 -->
<g id="node6" class="node">
<title>003</title>
<ellipse fill="aqua" stroke="black" cx="869.23" cy="-56" rx="27" ry="18"/>
<text text-anchor="middle" x="869.23" y="-52.3" font-family="Times New Roman,serif" font-size="14.00">003</text>
</g>
<!-- 002&#45;&gt;003 -->
<g id="edge5" class="edge">
<title>002&#45;&gt;003</title>
<path fill="none" stroke="black" d="M548.61,-88.74C569.36,-72.24 591.88,-55 597.78,-53 678.68,-25.64 781.14,-38.67 833.69,-48.51"/>
<polygon fill="black" stroke="black" points="833.03,-51.95 843.51,-50.42 834.36,-45.07 833.03,-51.95"/>
<text text-anchor="middle" x="697.28" y="-146.8" font-family="Times New Roman,serif" font-size="14.00">Female reproductive system</text>
<text text-anchor="middle" x="697.28" y="-131.8" font-family="Times New Roman,serif" font-size="14.00">diovarial, amphidelphic; basal</text>
<text text-anchor="middle" x="697.28" y="-116.8" font-family="Times New Roman,serif" font-size="14.00">part of esophagus</text>
<text text-anchor="middle" x="697.28" y="-101.8" font-family="Times New Roman,serif" font-size="14.00">with a thin</text>
<text text-anchor="middle" x="697.28" y="-86.8" font-family="Times New Roman,serif" font-size="14.00">muscle sheath which</text>
<text text-anchor="middle" x="697.28" y="-71.8" font-family="Times New Roman,serif" font-size="14.00">is difficult to</text>
<text text-anchor="middle" x="697.28" y="-56.8" font-family="Times New Roman,serif" font-size="14.00">discern</text>
</g>
<!-- Nygellus -->
<g id="node9" class="node">
<title>Nygellus</title>
<ellipse fill="none" stroke="black" cx="1155.92" cy="-184" rx="42.49" ry="18"/>
<text text-anchor="middle" x="1155.92" y="-180.3" font-family="Times New Roman,serif" font-size="14.00">Nygellus</text>
</g>
<!-- 004&#45;&gt;Nygellus -->
<g id="edge8" class="edge">
<title>004&#45;&gt;Nygellus</title>
<path fill="none" stroke="black" d="M923.78,-184C975.32,-184 1052.71,-184 1103.51,-184"/>
<polygon fill="black" stroke="black" points="1103.62,-187.5 1113.62,-184 1103.62,-180.5 1103.62,-187.5"/>
<text text-anchor="middle" x="1018.68" y="-262.8" font-family="Times New Roman,serif" font-size="14.00">Body length &lt;</text>
<text text-anchor="middle" x="1018.68" y="-247.8" font-family="Times New Roman,serif" font-size="14.00">1.4 mm; cuticle</text>
<text text-anchor="middle" x="1018.68" y="-232.8" font-family="Times New Roman,serif" font-size="14.00">thin with fine</text>
<text text-anchor="middle" x="1018.68" y="-217.8" font-family="Times New Roman,serif" font-size="14.00">transverse striations; lip</text>
<text text-anchor="middle" x="1018.68" y="-202.8" font-family="Times New Roman,serif" font-size="14.00">region continuous with</text>
<text text-anchor="middle" x="1018.68" y="-187.8" font-family="Times New Roman,serif" font-size="14.00">body contour</text>
</g>
<!-- 005 -->
<g id="node7" class="node">
<title>005</title>
<ellipse fill="none" stroke="black" cx="1155.92" cy="-86" rx="27" ry="18"/>
<text text-anchor="middle" x="1155.92" y="-82.3" font-family="Times New Roman,serif" font-size="14.00">005</text>
</g>
<!-- 003&#45;&gt;005 -->
<g id="edge6" class="edge">
<title>003&#45;&gt;005</title>
<path fill="none" stroke="black" d="M896.02,-58.94C909.6,-60.48 926.54,-62.37 941.68,-64 1003.94,-70.7 1076.47,-78.09 1118.88,-82.38"/>
<polygon fill="black" stroke="black" points="1118.68,-85.88 1128.98,-83.4 1119.39,-78.91 1118.68,-85.88"/>
<text text-anchor="middle" x="1018.68" y="-112.8" font-family="Times New Roman,serif" font-size="14.00">Aetholaimidae Anterior part</text>
<text text-anchor="middle" x="1018.68" y="-97.8" font-family="Times New Roman,serif" font-size="14.00">of stoma bowl&#45;shaped</text>
<text text-anchor="middle" x="1018.68" y="-82.8" font-family="Times New Roman,serif" font-size="14.00">and sclerotized</text>
</g>
<!-- 006 -->
<g id="node8" class="node">
<title>006</title>
<ellipse fill="none" stroke="black" cx="1155.92" cy="-18" rx="27" ry="18"/>
<text text-anchor="middle" x="1155.92" y="-14.3" font-family="Times New Roman,serif" font-size="14.00">006</text>
</g>
<!-- 003&#45;&gt;006 -->
<g id="edge7" class="edge">
<title>003&#45;&gt;006</title>
<path fill="none" stroke="black" d="M887.58,-42.57C901.38,-32.78 921.64,-20.34 941.68,-15 1002.66,1.25 1076.97,-5.47 1119.83,-11.77"/>
<polygon fill="black" stroke="black" points="1119.34,-15.24 1129.76,-13.31 1120.41,-8.32 1119.34,-15.24"/>
<text text-anchor="middle" x="1018.68" y="-48.8" font-family="Times New Roman,serif" font-size="14.00">Nygolaimidae Anterior part</text>
<text text-anchor="middle" x="1018.68" y="-33.8" font-family="Times New Roman,serif" font-size="14.00">of stoma simple,</text>
<text text-anchor="middle" x="1018.68" y="-18.8" font-family="Times New Roman,serif" font-size="14.00">without sclerotization</text>
</g>
<g id="node10" class="node">
<title></title>
<ellipse fill="aqua" stroke="black" cx="87.68" cy="-162" rx="27" ry="18"/>
</g>
<!-- &#45;&gt; -->
<g id="edge9" class="edge">
<title>&#45;&gt;</title>
<path fill="none" stroke="black" d="M86.23,-180.15C86.01,-189.54 86.49,-198 87.68,-198 88.4,-198 88.87,-194.86 89.07,-190.28"/>
<polygon fill="black" stroke="black" points="92.57,-190.17 89.13,-180.15 85.57,-190.13 92.57,-190.17"/>
</g>
<!-- &#45;&gt; -->
<g id="edge10" class="edge">
<title>&#45;&gt;</title>
<path fill="none" stroke="black" d="M85.28,-179.98C83.99,-197.2 84.79,-216 87.68,-216 90.01,-216 90.98,-203.83 90.6,-190.1"/>
<polygon fill="black" stroke="black" points="94.09,-189.79 90.09,-179.98 87.1,-190.14 94.09,-189.79"/>
</g>
<!-- &#45;&gt; -->
<g id="edge11" class="edge">
<title>&#45;&gt;</title>
<path fill="none" stroke="black" d="M84.64,-180.08C81.96,-204.41 82.97,-234 87.68,-234 91.75,-234 93.06,-211.95 91.61,-190.26"/>
<polygon fill="black" stroke="black" points="95.08,-189.73 90.72,-180.08 88.11,-190.35 95.08,-189.73"/>
</g>
<!-- &#45;&gt; -->
<g id="edge12" class="edge">
<title>&#45;&gt;</title>
<path fill="none" stroke="black" d="M84.2,-180.11C79.93,-211.24 81.09,-252 87.68,-252 93.58,-252 95.13,-219.38 92.33,-190.22"/>
<polygon fill="black" stroke="black" points="95.79,-189.64 91.16,-180.11 88.83,-190.45 95.79,-189.64"/>
</g>
<!-- &#45;&gt; -->
<g id="edge13" class="edge">
<title>&#45;&gt;</title>
<path fill="none" stroke="black" d="M83.89,-180.06C77.9,-217.79 79.17,-270 87.68,-270 95.47,-270 97.19,-226.38 92.86,-190.06"/>
<polygon fill="black" stroke="black" points="96.31,-189.48 91.47,-180.06 89.38,-190.44 96.31,-189.48"/>
</g>
<!-- &#45;&gt; -->
<g id="edge14" class="edge">
<title>&#45;&gt;</title>
<path fill="none" stroke="black" d="M83.64,-180.07C75.88,-224.26 77.23,-288 87.68,-288 97.36,-288 99.23,-233.37 93.3,-190.2"/>
<polygon fill="black" stroke="black" points="96.72,-189.41 91.72,-180.07 89.8,-190.49 96.72,-189.41"/>
</g>
<!-- &#45;&gt; -->
<g id="edge15" class="edge">
<title>&#45;&gt;</title>
<path fill="none" stroke="black" d="M83.46,-179.95C73.86,-230.52 75.27,-306 87.68,-306 99.3,-306 101.27,-239.93 93.62,-190.01"/>
<polygon fill="black" stroke="black" points="97.03,-189.22 91.9,-179.95 90.13,-190.4 97.03,-189.22"/>
</g>
<!-- &#45;&gt; -->
<g id="edge16" class="edge">
<title>&#45;&gt;</title>
<path fill="none" stroke="black" d="M83.3,-179.95C71.85,-236.82 73.31,-324 87.68,-324 101.24,-324 103.31,-246.42 93.88,-189.89"/>
<polygon fill="black" stroke="black" points="97.31,-189.16 92.06,-179.95 90.42,-190.42 97.31,-189.16"/>
</g>
<!-- &#45;&gt; -->
<g id="edge17" class="edge">
<title>&#45;&gt;</title>
<path fill="none" stroke="black" d="M83.18,-179.9C69.83,-243.02 71.33,-342 87.68,-342 103.2,-342 105.34,-252.82 94.1,-189.78"/>
<polygon fill="black" stroke="black" points="97.53,-189.05 92.18,-179.9 90.65,-190.38 97.53,-189.05"/>
</g>
<!-- &#45;&gt; -->
<g id="edge18" class="edge">
<title>&#45;&gt;</title>
<path fill="none" stroke="black" d="M83.07,-179.91C67.82,-249.24 69.36,-360 87.68,-360 105.14,-360 107.36,-259.38 94.33,-189.92"/>
<polygon fill="black" stroke="black" points="97.72,-189.01 92.3,-179.91 90.86,-190.4 97.72,-189.01"/>
</g>
<!-- &#45;&gt; -->
<g id="edge19" class="edge">
<title>&#45;&gt;</title>
<path fill="none" stroke="black" d="M82.93,-180.09C65.82,-255.62 67.4,-378 87.68,-378 107.09,-378 109.38,-265.91 94.54,-190.07"/>
<polygon fill="black" stroke="black" points="97.92,-189.15 92.43,-180.09 91.07,-190.6 97.92,-189.15"/>
</g>
<!-- &#45;&gt; -->
<g id="edge20" class="edge">
<title>&#45;&gt;</title>
<path fill="none" stroke="black" d="M82.91,-179.79C63.8,-261.45 65.39,-396 87.68,-396 109.1,-396 111.4,-271.76 94.59,-189.59"/>
<polygon fill="black" stroke="black" points="98.01,-188.81 92.45,-179.79 91.17,-190.3 98.01,-188.81"/>
</g>
<!-- &#45;&gt; -->
<g id="edge21" class="edge">
<title>&#45;&gt;</title>
<path fill="none" stroke="black" d="M82.85,-179.77C61.8,-267.57 63.41,-414 87.68,-414 111.05,-414 113.42,-278.24 94.77,-189.78"/>
<polygon fill="black" stroke="black" points="98.13,-188.76 92.52,-179.77 91.3,-190.3 98.13,-188.76"/>
</g>
<!-- &#45;&gt; -->
<g id="edge22" class="edge">
<title>&#45;&gt;</title>
<path fill="none" stroke="black" d="M82.76,-179.86C59.79,-273.8 61.43,-432 87.68,-432 113.03,-432 115.43,-284.43 94.87,-189.71"/>
<polygon fill="black" stroke="black" points="98.26,-188.82 92.6,-179.86 91.44,-190.39 98.26,-188.82"/>
</g>
<!-- &#45;&gt; -->
<g id="edge23" class="edge">
<title>&#45;&gt;</title>
<path fill="none" stroke="black" d="M82.72,-179.81C57.78,-279.84 59.44,-450 87.68,-450 115.01,-450 117.44,-290.63 94.97,-189.69"/>
<polygon fill="black" stroke="black" points="98.35,-188.74 92.65,-179.81 91.53,-190.34 98.35,-188.74"/>
</g>
<!-- &#45;&gt; -->
<g id="edge24" class="edge">
<title>&#45;&gt;</title>
<path fill="none" stroke="black" d="M82.63,-179.93C55.78,-286.08 57.46,-468 87.68,-468 116.99,-468 119.45,-296.93 95.09,-189.77"/>
<polygon fill="black" stroke="black" points="98.46,-188.84 92.73,-179.93 91.66,-190.47 98.46,-188.84"/>
</g>
<!-- &#45;&gt; -->
<g id="edge25" class="edge">
<title>&#45;&gt;</title>
<path fill="none" stroke="black" d="M82.59,-179.94C53.78,-292.18 55.47,-486 87.68,-486 118.98,-486 121.47,-303 95.15,-189.67"/>
<polygon fill="black" stroke="black" points="98.55,-188.82 92.78,-179.94 91.75,-190.48 98.55,-188.82"/>
</g>
<!-- &#45;&gt; -->
<g id="edge26" class="edge">
<title>&#45;&gt;</title>
<path fill="none" stroke="black" d="M82.57,-179.84C51.77,-298.15 53.47,-504 87.68,-504 120.95,-504 123.47,-309.25 95.25,-189.73"/>
<polygon fill="black" stroke="black" points="98.6,-188.7 92.79,-179.84 91.8,-190.39 98.6,-188.7"/>
</g>
<!-- &#45;&gt; -->
<g id="edge27" class="edge">
<title>&#45;&gt;</title>
<path fill="none" stroke="black" d="M82.49,-180.01C49.77,-304.42 51.5,-522 87.68,-522 122.91,-522 125.48,-315.74 95.39,-190.04"/>
<polygon fill="black" stroke="black" points="98.7,-188.86 92.88,-180.01 91.91,-190.56 98.7,-188.86"/>
</g>
<!-- &#45;&gt; -->
<g id="edge28" class="edge">
<title>&#45;&gt;</title>
<path fill="none" stroke="black" d="M82.53,-179.71C47.76,-310.13 49.48,-540 87.68,-540 124.95,-540 127.49,-321.22 95.31,-189.43"/>
<polygon fill="black" stroke="black" points="98.69,-188.53 92.83,-179.71 91.91,-190.26 98.69,-188.53"/>
</g>
<!-- &#45;&gt; -->
<g id="edge29" class="edge">
<title>&#45;&gt;</title>
<path fill="none" stroke="black" d="M82.5,-179.72C45.76,-316.2 47.49,-558 87.68,-558 126.93,-558 129.5,-327.4 95.38,-189.48"/>
<polygon fill="black" stroke="black" points="98.75,-188.52 92.86,-179.72 91.97,-190.27 98.75,-188.52"/>
</g>
<!-- &#45;&gt; -->
<g id="edge30" class="edge">
<title>&#45;&gt;</title>
<path fill="none" stroke="black" d="M82.37,-180.08C43.76,-322.69 45.53,-576 87.68,-576 128.89,-576 131.5,-333.94 95.53,-189.86"/>
<polygon fill="black" stroke="black" points="98.9,-188.88 92.99,-180.08 92.12,-190.64 98.9,-188.88"/>
</g>
<!-- &#45;&gt; -->
<g id="edge31" class="edge">
<title>&#45;&gt;</title>
<path fill="none" stroke="black" d="M82.38,-179.96C41.75,-328.6 43.52,-594 87.68,-594 130.89,-594 133.51,-339.88 95.54,-189.7"/>
<polygon fill="black" stroke="black" points="98.91,-188.74 92.99,-179.96 92.14,-190.52 98.91,-188.74"/>
</g>
<!-- &#45;&gt; -->
<g id="edge32" class="edge">
<title>&#45;&gt;</title>
<path fill="none" stroke="black" d="M82.41,-179.77C39.75,-334.42 41.51,-612 87.68,-612 132.91,-612 135.52,-345.68 95.52,-189.43"/>
<polygon fill="black" stroke="black" points="98.91,-188.53 92.96,-179.77 92.14,-190.33 98.91,-188.53"/>
</g>
<!-- &#45;&gt; -->
<g id="edge33" class="edge">
<title>&#45;&gt;</title>
<path fill="none" stroke="black" d="M82.32,-179.99C37.75,-340.73 39.54,-630 87.68,-630 134.84,-630 137.52,-352.47 95.72,-190.04"/>
<polygon fill="black" stroke="black" points="99,-188.75 93.04,-179.99 92.24,-190.55 99,-188.75"/>
</g>
<!-- &#45;&gt; -->
<g id="edge34" class="edge">
<title>&#45;&gt;</title>
<path fill="none" stroke="black" d="M82.39,-179.67C35.75,-346.38 37.51,-648 87.68,-648 136.9,-648 139.53,-357.76 95.58,-189.33"/>
<polygon fill="black" stroke="black" points="98.96,-188.41 92.97,-179.67 92.2,-190.23 98.96,-188.41"/>
</g>
<!-- &#45;&gt; -->
<g id="edge35" class="edge">
<title>&#45;&gt;</title>
<path fill="none" stroke="black" d="M82.33,-179.8C33.74,-352.58 35.53,-666 87.68,-666 138.87,-666 141.53,-364.1 95.68,-189.56"/>
<polygon fill="black" stroke="black" points="99.03,-188.53 93.03,-179.8 92.27,-190.36 99.03,-188.53"/>
</g>
<!-- &#45;&gt; -->
<g id="edge36" class="edge">
<title>&#45;&gt;</title>
<path fill="none" stroke="black" d="M82.29,-179.89C31.74,-358.73 33.54,-684 87.68,-684 140.84,-684 143.54,-370.37 95.76,-189.72"/>
<polygon fill="black" stroke="black" points="99.09,-188.61 93.07,-179.89 92.34,-190.46 99.09,-188.61"/>
</g>
<!-- &#45;&gt; -->
<g id="edge37" class="edge">
<title>&#45;&gt;</title>
<path fill="none" stroke="black" d="M82.33,-179.67C29.74,-364.49 31.52,-702 87.68,-702 142.85,-702 145.54,-376.25 95.75,-189.55"/>
<polygon fill="black" stroke="black" points="99.06,-188.38 93.03,-179.67 92.31,-190.24 99.06,-188.38"/>
</g>
<!-- &#45;&gt; -->
<g id="edge38" class="edge">
<title>&#45;&gt;</title>
<path fill="none" stroke="black" d="M82.31,-179.68C27.74,-370.53 29.53,-720 87.68,-720 144.84,-720 147.55,-382.38 95.8,-189.6"/>
<polygon fill="black" stroke="black" points="99.09,-188.38 93.05,-179.68 92.35,-190.25 99.09,-188.38"/>
</g>
<!-- &#45;&gt; -->
<g id="edge39" class="edge">
<title>&#45;&gt;</title>
<path fill="none" stroke="black" d="M82.31,-179.65C25.74,-376.53 27.53,-738 87.68,-738 146.87,-738 149.55,-388.09 95.75,-189.3"/>
<polygon fill="black" stroke="black" points="99.11,-188.34 93.06,-179.65 92.37,-190.22 99.11,-188.34"/>
</g>
<!-- &#45;&gt; -->
<g id="edge40" class="edge">
<title>&#45;&gt;</title>
<path fill="none" stroke="black" d="M82.22,-179.9C23.74,-382.86 25.56,-756 87.68,-756 148.84,-756 151.55,-394.43 95.84,-189.53"/>
<polygon fill="black" stroke="black" points="99.21,-188.58 93.14,-179.9 92.47,-190.47 99.21,-188.58"/>
</g>
<!-- &#45;&gt; -->
<g id="edge41" class="edge">
<title>&#45;&gt;</title>
<path fill="none" stroke="black" d="M82.23,-179.81C21.73,-388.78 23.55,-774 87.68,-774 150.81,-774 153.56,-400.73 95.92,-189.73"/>
<polygon fill="black" stroke="black" points="99.21,-188.49 93.13,-179.81 92.47,-190.38 99.21,-188.49"/>
</g>
<!-- &#45;&gt; -->
<g id="edge42" class="edge">
<title>&#45;&gt;</title>
<path fill="none" stroke="black" d="M82.26,-179.68C19.73,-394.65 21.54,-792 87.68,-792 152.82,-792 155.56,-406.59 95.9,-189.57"/>
<polygon fill="black" stroke="black" points="99.2,-188.36 93.11,-179.68 92.46,-190.26 99.2,-188.36"/>
</g>
<!-- &#45;&gt; -->
<g id="edge43" class="edge">
<title>&#45;&gt;</title>
<path fill="none" stroke="black" d="M82.19,-179.86C17.73,-400.89 19.56,-810 87.68,-810 154.8,-810 157.56,-412.79 95.96,-189.69"/>
<polygon fill="black" stroke="black" points="99.27,-188.52 93.17,-179.86 92.53,-190.43 99.27,-188.52"/>
</g>
<!-- &#45;&gt; -->
<g id="edge44" class="edge">
<title>&#45;&gt;</title>
<path fill="none" stroke="black" d="M82.24,-179.67C15.73,-406.68 17.54,-828 87.68,-828 156.82,-828 159.57,-418.53 95.91,-189.43"/>
<polygon fill="black" stroke="black" points="99.24,-188.33 93.13,-179.67 92.5,-190.25 99.24,-188.33"/>
</g>
<!-- &#45;&gt; -->
<g id="edge45" class="edge">
<title>&#45;&gt;</title>
<path fill="none" stroke="black" d="M82.19,-179.8C13.73,-412.86 15.56,-846 87.68,-846 158.82,-846 161.57,-424.62 95.94,-189.47"/>
<polygon fill="black" stroke="black" points="99.29,-188.45 93.17,-179.8 92.56,-190.37 99.29,-188.45"/>
</g>
<!-- &#45;&gt; -->
<g id="edge46" class="edge">
<title>&#45;&gt;</title>
<path fill="none" stroke="black" d="M82.14,-179.91C11.73,-419.02 13.57,-864 87.68,-864 160.78,-864 163.57,-431.1 96.07,-189.83"/>
<polygon fill="black" stroke="black" points="99.34,-188.55 93.22,-179.91 92.61,-190.48 99.34,-188.55"/>
</g>
<!-- &#45;&gt; -->
<g id="edge47" class="edge">
<title>&#45;&gt;</title>
<path fill="none" stroke="black" d="M82.22,-179.63C9.73,-424.69 11.55,-882 87.68,-882 162.81,-882 165.58,-436.67 95.97,-189.43"/>
<polygon fill="black" stroke="black" points="99.28,-188.27 93.15,-179.63 92.56,-190.21 99.28,-188.27"/>
</g>
<!-- &#45;&gt; -->
<g id="edge48" class="edge">
<title>&#45;&gt;</title>
<path fill="none" stroke="black" d="M82.19,-179.69C7.73,-430.79 9.56,-900 87.68,-900 164.81,-900 167.58,-442.63 95.97,-189.36"/>
<polygon fill="black" stroke="black" points="99.32,-188.32 93.17,-179.69 92.59,-190.27 99.32,-188.32"/>
</g>
<!-- &#45;&gt; -->
<g id="edge49" class="edge">
<title>&#45;&gt;</title>
<path fill="none" stroke="black" d="M82.17,-179.74C5.72,-436.87 7.56,-918 87.68,-918 166.78,-918 169.58,-449.01 96.07,-189.64"/>
<polygon fill="black" stroke="black" points="99.35,-188.37 93.2,-179.74 92.62,-190.32 99.35,-188.37"/>
</g>
<!-- &#45;&gt; -->
<g id="edge50" class="edge">
<title>&#45;&gt;</title>
<path fill="none" stroke="black" d="M82.15,-179.77C3.72,-442.92 5.57,-936 87.68,-936 168.79,-936 171.58,-454.88 96.05,-189.5"/>
<polygon fill="black" stroke="black" points="99.37,-188.39 93.21,-179.77 92.65,-190.35 99.37,-188.39"/>
</g>
<!-- &#45;&gt; -->
<g id="edge51" class="edge">
<title>&#45;&gt;</title>
<path fill="none" stroke="black" d="M82.14,-179.78C1.72,-448.95 3.57,-954 87.68,-954 170.76,-954 173.58,-461.2 96.13,-189.74"/>
<polygon fill="black" stroke="black" points="99.39,-188.39 93.23,-179.78 92.67,-190.36 99.39,-188.39"/>
</g>
<!-- &#45;&gt; -->
<g id="edge52" class="edge">
<title>&#45;&gt;</title>
<path fill="none" stroke="black" d="M82.13,-179.77C-0.28,-454.95 1.57,-972 87.68,-972 172.78,-972 175.59,-467 96.09,-189.54"/>
<polygon fill="black" stroke="black" points="99.4,-188.38 93.23,-179.77 92.68,-190.35 99.4,-188.38"/>
</g>
<!-- &#45;&gt; -->
<g id="edge53" class="edge">
<title>&#45;&gt;</title>
<path fill="none" stroke="black" d="M82.13,-179.74C-2.28,-460.94 -0.43,-990 87.68,-990 174.76,-990 177.59,-473.26 96.16,-189.73"/>
<polygon fill="black" stroke="black" points="99.41,-188.35 93.23,-179.74 92.69,-190.32 99.41,-188.35"/>
</g>
<!-- &#45;&gt; -->
<g id="edge54" class="edge">
<title>&#45;&gt;</title>
<path fill="none" stroke="black" d="M82.14,-179.7C-4.28,-466.9 -2.43,-1008 87.68,-1008 176.78,-1008 179.59,-478.98 96.1,-189.47"/>
<polygon fill="black" stroke="black" points="99.41,-188.3 93.23,-179.7 92.69,-190.28 99.41,-188.3"/>
</g>
<!-- &#45;&gt; -->
<g id="edge55" class="edge">
<title>&#45;&gt;</title>
<path fill="none" stroke="black" d="M82.15,-179.64C-6.28,-472.83 -4.44,-1026 87.68,-1026 178.76,-1026 181.59,-485.19 96.16,-189.61"/>
<polygon fill="black" stroke="black" points="99.4,-188.24 93.21,-179.64 92.69,-190.22 99.4,-188.24"/>
</g>
<!-- &#45;&gt; -->
<g id="edge56" class="edge">
<title>&#45;&gt;</title>
<path fill="none" stroke="black" d="M82.03,-180C-8.28,-479.31 -6.4,-1044 87.68,-1044 180.75,-1044 183.59,-491.37 96.21,-189.74"/>
<polygon fill="black" stroke="black" points="99.52,-188.6 93.33,-180 92.81,-190.59 99.52,-188.6"/>
</g>
<!-- &#45;&gt; -->
<g id="edge57" class="edge">
<title>&#45;&gt;</title>
<path fill="none" stroke="black" d="M82.05,-179.91C-10.28,-485.21 -8.4,-1062 87.68,-1062 182.74,-1062 185.59,-497.53 96.25,-189.85"/>
<polygon fill="black" stroke="black" points="99.51,-188.51 93.31,-179.91 92.8,-190.5 99.51,-188.51"/>
</g>
<!-- &#45;&gt; -->
<g id="edge58" class="edge">
<title>&#45;&gt;</title>
<path fill="none" stroke="black" d="M82.08,-179.81C-12.28,-491.09 -10.41,-1080 87.68,-1080 184.77,-1080 187.6,-503.1 96.16,-189.47"/>
<polygon fill="black" stroke="black" points="99.49,-188.4 93.29,-179.81 92.78,-190.39 99.49,-188.4"/>
</g>
<!-- &#45;&gt; -->
<g id="edge59" class="edge">
<title>&#45;&gt;</title>
<path fill="none" stroke="black" d="M82.11,-179.68C-14.28,-496.94 -12.43,-1098 87.68,-1098 186.76,-1098 189.6,-509.2 96.19,-189.53"/>
<polygon fill="black" stroke="black" points="99.46,-188.27 93.25,-179.68 92.75,-190.27 99.46,-188.27"/>
</g>
<!-- &#45;&gt; -->
<g id="edge60" class="edge">
<title>&#45;&gt;</title>
<path fill="none" stroke="black" d="M82,-180.02C-16.28,-503.38 -14.39,-1116 87.68,-1116 188.7,-1116 191.6,-515.88 96.35,-190.06"/>
<polygon fill="black" stroke="black" points="99.57,-188.61 93.36,-180.02 92.87,-190.61 99.57,-188.61"/>
</g>
<!-- &#45;&gt; -->
<g id="edge61" class="edge">
<title>&#45;&gt;</title>
<path fill="none" stroke="black" d="M82.04,-179.87C-18.28,-509.2 -16.4,-1134 87.68,-1134 190.75,-1134 193.6,-521.35 96.23,-189.6"/>
<polygon fill="black" stroke="black" points="99.54,-188.45 93.32,-179.87 92.83,-190.46 99.54,-188.45"/>
</g>
<!-- &#45;&gt; -->
<g id="edge62" class="edge">
<title>&#45;&gt;</title>
<path fill="none" stroke="black" d="M82.09,-179.7C-20.29,-515 -18.42,-1152 87.68,-1152 192.75,-1152 195.6,-527.38 96.25,-189.61"/>
<polygon fill="black" stroke="black" points="99.5,-188.28 93.28,-179.7 92.79,-190.29 99.5,-188.28"/>
</g>
<!-- &#45;&gt; -->
<g id="edge63" class="edge">
<title>&#45;&gt;</title>
<path fill="none" stroke="black" d="M82.06,-179.77C-22.29,-521.09 -20.41,-1170 87.68,-1170 194.77,-1170 197.6,-533.08 96.18,-189.35"/>
<polygon fill="black" stroke="black" points="99.53,-188.34 93.3,-179.77 92.83,-190.35 99.53,-188.34"/>
</g>
<!-- &#45;&gt; -->
<g id="edge64" class="edge">
<title>&#45;&gt;</title>
<path fill="none" stroke="black" d="M82.04,-179.83C-24.29,-527.18 -22.4,-1188 87.68,-1188 196.75,-1188 199.6,-539.38 96.26,-189.58"/>
<polygon fill="black" stroke="black" points="99.56,-188.4 93.33,-179.83 92.85,-190.41 99.56,-188.4"/>
</g>
</g>
</svg>
