<?xml version="1.0" encoding="UTF-8" standalone="no"?>
<!DOCTYPE svg PUBLIC "-//W3C//DTD SVG 1.1//EN"
 "http://www.w3.org/Graphics/SVG/1.1/DTD/svg11.dtd">
<!-- Generated by graphviz version 2.49.3 (20211023.0002)
 -->
<!-- Title: Nematoda Key Pages: 1 -->
<svg width="323pt" height="1574pt"
 viewBox="0.00 0.00 323.01 1574.00" xmlns="http://www.w3.org/2000/svg" xmlns:xlink="http://www.w3.org/1999/xlink">
<g id="graph0" class="graph" transform="scale(1 1) rotate(0) translate(4 1570)">
<title>Nematoda Key</title>
<polygon fill="white" stroke="transparent" points="-4,4 -4,-1570 319.01,-1570 319.01,4 -4,4"/>
<!-- 001 -->
<g id="node1" class="node">
<title>001</title>
<ellipse fill="red" stroke="black" cx="53.95" cy="-769" rx="53.89" ry="18"/>
<text text-anchor="middle" x="53.95" y="-765.3" font-family="Times New Roman,serif" font-size="14.00">Rhabditidae</text>
</g>
<!-- A -->
<g id="node2" class="node">
<title>A</title>
<ellipse fill="aqua" stroke="black" cx="229.45" cy="-1548" rx="63.89" ry="18"/>
<text text-anchor="middle" x="229.45" y="-1544.3" font-family="Times New Roman,serif" font-size="14.00">Matthesonema</text>
</g>
<!-- 001&#45;&gt;A -->
<g id="edge1" class="edge">
<title>001&#45;&gt;A</title>
<path fill="none" stroke="black" d="M92.5,-781.77C98.56,-785.44 104.08,-790.11 107.89,-796 195.54,-931.42 45.54,-1393.14 143.89,-1521 148.78,-1527.36 155.17,-1532.24 162.26,-1536"/>
<polygon fill="black" stroke="black" points="160.99,-1539.26 171.55,-1540.17 163.86,-1532.88 160.99,-1539.26"/>
</g>
<!-- B -->
<g id="node3" class="node">
<title>B</title>
<ellipse fill="aqua" stroke="black" cx="229.45" cy="-1494" rx="59.59" ry="18"/>
<text text-anchor="middle" x="229.45" y="-1490.3" font-family="Times New Roman,serif" font-size="14.00">Distolabrellus</text>
</g>
<!-- 001&#45;&gt;B -->
<g id="edge2" class="edge">
<title>001&#45;&gt;B</title>
<path fill="none" stroke="black" d="M92.48,-781.78C98.54,-785.45 104.07,-790.12 107.89,-796 189.27,-921.2 52.61,-1348.82 143.89,-1467 149.37,-1474.09 156.71,-1479.35 164.8,-1483.25"/>
<polygon fill="black" stroke="black" points="163.61,-1486.54 174.19,-1487.1 166.26,-1480.07 163.61,-1486.54"/>
</g>
<!-- C -->
<g id="node4" class="node">
<title>C</title>
<ellipse fill="aqua" stroke="black" cx="229.45" cy="-1440" rx="47.39" ry="18"/>
<text text-anchor="middle" x="229.45" y="-1436.3" font-family="Times New Roman,serif" font-size="14.00">Cruznema</text>
</g>
<!-- 001&#45;&gt;C -->
<g id="edge3" class="edge">
<title>001&#45;&gt;C</title>
<path fill="none" stroke="black" d="M100.54,-778.68C103.35,-781.12 105.86,-783.89 107.89,-787 183.01,-901.98 59.68,-1295.5 143.89,-1404 152.95,-1415.67 167.08,-1422.39 181.22,-1426.7"/>
<polygon fill="black" stroke="black" points="180.38,-1430.09 190.95,-1429.33 182.21,-1423.34 180.38,-1430.09"/>
</g>
<!-- 001&#45;&gt;C -->
<g id="edge4" class="edge">
<title>001&#45;&gt;C</title>
<path fill="none" stroke="black" d="M81.46,-784.61C91.42,-789.41 101.8,-795.67 107.89,-805 183.01,-919.98 59.68,-1313.5 143.89,-1422 151.2,-1431.42 161.81,-1437.61 173.06,-1441.41"/>
<polygon fill="black" stroke="black" points="172.47,-1444.88 183.04,-1444.17 174.33,-1438.13 172.47,-1444.88"/>
</g>
<!-- E -->
<g id="node5" class="node">
<title>E</title>
<ellipse fill="aqua" stroke="black" cx="229.45" cy="-1386" rx="51.99" ry="18"/>
<text text-anchor="middle" x="229.45" y="-1382.3" font-family="Times New Roman,serif" font-size="14.00">Rhabpanus</text>
</g>
<!-- 001&#45;&gt;E -->
<g id="edge5" class="edge">
<title>001&#45;&gt;E</title>
<path fill="none" stroke="black" d="M92.43,-781.81C98.49,-785.48 104.04,-790.14 107.89,-796 176.76,-900.76 66.75,-1260.18 143.89,-1359 150.5,-1367.47 159.78,-1373.33 169.79,-1377.37"/>
<polygon fill="black" stroke="black" points="168.95,-1380.78 179.54,-1380.71 171.22,-1374.16 168.95,-1380.78"/>
</g>
<!-- F -->
<g id="node6" class="node">
<title>F</title>
<ellipse fill="aqua" stroke="black" cx="229.45" cy="-1332" rx="62.29" ry="18"/>
<text text-anchor="middle" x="229.45" y="-1328.3" font-family="Times New Roman,serif" font-size="14.00">Mesorhabditis</text>
</g>
<!-- 001&#45;&gt;F -->
<g id="edge6" class="edge">
<title>001&#45;&gt;F</title>
<path fill="none" stroke="black" d="M92.4,-781.83C98.47,-785.5 104.02,-790.15 107.89,-796 170.5,-890.54 73.82,-1215.85 143.89,-1305 148.98,-1311.47 155.63,-1316.42 162.96,-1320.2"/>
<polygon fill="black" stroke="black" points="161.99,-1323.59 172.56,-1324.38 164.79,-1317.18 161.99,-1323.59"/>
</g>
<!-- G -->
<g id="node7" class="node">
<title>G</title>
<ellipse fill="aqua" stroke="black" cx="229.45" cy="-1278" rx="71.49" ry="18"/>
<text text-anchor="middle" x="229.45" y="-1274.3" font-family="Times New Roman,serif" font-size="14.00">Parasitorhabditis</text>
</g>
<!-- 001&#45;&gt;G -->
<g id="edge7" class="edge">
<title>001&#45;&gt;G</title>
<path fill="none" stroke="black" d="M92.36,-781.86C98.43,-785.53 103.99,-790.17 107.89,-796 164.24,-880.33 80.88,-1171.52 143.89,-1251 148.14,-1256.35 153.45,-1260.66 159.33,-1264.13"/>
<polygon fill="black" stroke="black" points="157.79,-1267.27 168.3,-1268.63 160.93,-1261.02 157.79,-1267.27"/>
</g>
<!-- H -->
<g id="node8" class="node">
<title>H</title>
<ellipse fill="aqua" stroke="black" cx="229.45" cy="-1224" rx="66.89" ry="18"/>
<text text-anchor="middle" x="229.45" y="-1220.3" font-family="Times New Roman,serif" font-size="14.00">Crustorhabditis</text>
</g>
<!-- 001&#45;&gt;H -->
<g id="edge8" class="edge">
<title>001&#45;&gt;H</title>
<path fill="none" stroke="black" d="M92.31,-781.89C98.38,-785.56 103.96,-790.19 107.89,-796 157.99,-870.13 87.94,-1127.19 143.89,-1197 148.59,-1202.87 154.58,-1207.48 161.19,-1211.1"/>
<polygon fill="black" stroke="black" points="159.97,-1214.4 170.52,-1215.45 162.93,-1208.06 159.97,-1214.4"/>
</g>
<!-- I -->
<g id="node9" class="node">
<title>I</title>
<ellipse fill="aqua" stroke="black" cx="229.45" cy="-1161" rx="74.49" ry="26.74"/>
<text text-anchor="middle" x="229.45" y="-1164.8" font-family="Times New Roman,serif" font-size="14.00">Pelodera</text>
<text text-anchor="middle" x="229.45" y="-1149.8" font-family="Times New Roman,serif" font-size="14.00">Strongyloid.&#45;gr.</text>
</g>
<!-- 001&#45;&gt;I -->
<g id="edge9" class="edge">
<title>001&#45;&gt;I</title>
<path fill="none" stroke="black" d="M91.95,-781.79C98.14,-785.48 103.85,-790.14 107.89,-796 191.44,-917.06 56.21,-1006.9 143.89,-1125 148.27,-1130.9 153.81,-1135.84 159.96,-1139.98"/>
<polygon fill="black" stroke="black" points="158.27,-1143.05 168.66,-1145.14 161.84,-1137.03 158.27,-1143.05"/>
</g>
<!-- A1 -->
<g id="node10" class="node">
<title>A1</title>
<ellipse fill="aqua" stroke="black" cx="229.45" cy="-1098" rx="57.39" ry="18"/>
<text text-anchor="middle" x="229.45" y="-1094.3" font-family="Times New Roman,serif" font-size="14.00">Neorhabditis</text>
</g>
<!-- 001&#45;&gt;A1 -->
<g id="edge10" class="edge">
<title>001&#45;&gt;A1</title>
<path fill="none" stroke="black" d="M91.85,-781.86C98.05,-785.54 103.78,-790.18 107.89,-796 178.98,-896.7 64.86,-976.4 143.89,-1071 149.91,-1078.21 157.86,-1083.52 166.48,-1087.42"/>
<polygon fill="black" stroke="black" points="165.44,-1090.77 176.03,-1091.12 167.97,-1084.24 165.44,-1090.77"/>
</g>
<!-- B1 -->
<g id="node11" class="node">
<title>B1</title>
<ellipse fill="aqua" stroke="black" cx="229.45" cy="-1044" rx="59.29" ry="18"/>
<text text-anchor="middle" x="229.45" y="-1040.3" font-family="Times New Roman,serif" font-size="14.00">Xylurhabditis</text>
</g>
<!-- 001&#45;&gt;B1 -->
<g id="edge11" class="edge">
<title>001&#45;&gt;B1</title>
<path fill="none" stroke="black" d="M91.71,-781.97C97.91,-785.64 103.69,-790.25 107.89,-796 166.55,-876.39 78.9,-941.63 143.89,-1017 149.88,-1023.94 157.65,-1029.12 166.05,-1032.97"/>
<polygon fill="black" stroke="black" points="164.77,-1036.23 175.36,-1036.65 167.35,-1029.72 164.77,-1036.23"/>
</g>
<!-- C1 -->
<g id="node12" class="node">
<title>C1</title>
<ellipse fill="aqua" stroke="black" cx="229.45" cy="-990" rx="65.79" ry="18"/>
<text text-anchor="middle" x="229.45" y="-986.3" font-family="Times New Roman,serif" font-size="14.00">Sclerorhabditis</text>
</g>
<!-- 001&#45;&gt;C1 -->
<g id="edge12" class="edge">
<title>001&#45;&gt;C1</title>
<path fill="none" stroke="black" d="M91.48,-782.14C97.7,-785.79 103.55,-790.36 107.89,-796 154.19,-856.18 92.86,-906.78 143.89,-963 149.21,-968.86 155.79,-973.45 162.92,-977.05"/>
<polygon fill="black" stroke="black" points="161.62,-980.31 172.19,-981.1 164.43,-973.89 161.62,-980.31"/>
</g>
<!-- D1 -->
<g id="node13" class="node">
<title>D1</title>
<ellipse fill="aqua" stroke="black" cx="229.45" cy="-936" rx="55.49" ry="18"/>
<text text-anchor="middle" x="229.45" y="-932.3" font-family="Times New Roman,serif" font-size="14.00">Diplusrnpler</text>
</g>
<!-- 001&#45;&gt;D1 -->
<g id="edge13" class="edge">
<title>001&#45;&gt;D1</title>
<path fill="none" stroke="black" d="M90.78,-782.33C97.14,-785.98 103.22,-790.49 107.89,-796 142,-836.18 106.63,-871.72 143.89,-909 151,-916.11 159.98,-921.35 169.41,-925.21"/>
<polygon fill="black" stroke="black" points="168.35,-928.55 178.94,-928.63 170.71,-921.96 168.35,-928.55"/>
</g>
<!-- E1 -->
<g id="node14" class="node">
<title>E1</title>
<ellipse fill="aqua" stroke="black" cx="229.45" cy="-873" rx="68.68" ry="26.74"/>
<text text-anchor="middle" x="229.45" y="-876.8" font-family="Times New Roman,serif" font-size="14.00">Pruturhabditis</text>
<text text-anchor="middle" x="229.45" y="-861.8" font-family="Times New Roman,serif" font-size="14.00">Xylocla&#45;group</text>
</g>
<!-- 001&#45;&gt;E1 -->
<g id="edge14" class="edge">
<title>001&#45;&gt;E1</title>
<path fill="none" stroke="black" d="M87.48,-783.13C94.52,-786.85 101.7,-791.19 107.89,-796 127.03,-810.89 124.24,-822.78 143.89,-837 151.2,-842.29 159.41,-847 167.76,-851.12"/>
<polygon fill="black" stroke="black" points="166.3,-854.31 176.84,-855.37 169.26,-847.97 166.3,-854.31"/>
</g>
<!-- F1 -->
<g id="node15" class="node">
<title>F1</title>
<ellipse fill="aqua" stroke="black" cx="229.45" cy="-801" rx="84.29" ry="26.74"/>
<text text-anchor="middle" x="229.45" y="-804.8" font-family="Times New Roman,serif" font-size="14.00">Pruturhabditis</text>
<text text-anchor="middle" x="229.45" y="-789.8" font-family="Times New Roman,serif" font-size="14.00">Oxyuruides&#45;group</text>
</g>
<!-- 001&#45;&gt;F1 -->
<g id="edge15" class="edge">
<title>001&#45;&gt;F1</title>
<path fill="none" stroke="black" d="M101.44,-777.58C115.27,-780.13 130.86,-783 146.26,-785.84"/>
<polygon fill="black" stroke="black" points="145.86,-789.33 156.33,-787.7 147.13,-782.44 145.86,-789.33"/>
</g>
<!-- G1 -->
<g id="node16" class="node">
<title>G1</title>
<ellipse fill="aqua" stroke="black" cx="229.45" cy="-738" rx="75.29" ry="18"/>
<text text-anchor="middle" x="229.45" y="-734.3" font-family="Times New Roman,serif" font-size="14.00">Prudunturhabditis</text>
</g>
<!-- 001&#45;&gt;G1 -->
<g id="edge16" class="edge">
<title>001&#45;&gt;G1</title>
<path fill="none" stroke="black" d="M101.9,-760.61C119.42,-757.48 139.7,-753.86 158.83,-750.44"/>
<polygon fill="black" stroke="black" points="159.48,-753.88 168.71,-748.67 158.25,-746.99 159.48,-753.88"/>
</g>
<!-- H1 -->
<g id="node17" class="node">
<title>H1</title>
<ellipse fill="aqua" stroke="black" cx="229.45" cy="-684" rx="65.79" ry="18"/>
<text text-anchor="middle" x="229.45" y="-680.3" font-family="Times New Roman,serif" font-size="14.00">Caenorhabditis</text>
</g>
<!-- 001&#45;&gt;H1 -->
<g id="edge17" class="edge">
<title>001&#45;&gt;H1</title>
<path fill="none" stroke="black" d="M76.63,-752.47C94.07,-739.79 119.58,-722.55 143.89,-711 152.67,-706.83 162.26,-703.07 171.73,-699.78"/>
<polygon fill="black" stroke="black" points="173.12,-703.01 181.5,-696.52 170.91,-696.37 173.12,-703.01"/>
</g>
<!-- I1 -->
<g id="node18" class="node">
<title>I1</title>
<ellipse fill="aqua" stroke="black" cx="229.45" cy="-621" rx="75.82" ry="26.74"/>
<text text-anchor="middle" x="229.45" y="-624.8" font-family="Times New Roman,serif" font-size="14.00">Peludera</text>
<text text-anchor="middle" x="229.45" y="-609.8" font-family="Times New Roman,serif" font-size="14.00">Cuarctala&#45;group</text>
</g>
<!-- 001&#45;&gt;I1 -->
<g id="edge18" class="edge">
<title>001&#45;&gt;I1</title>
<path fill="none" stroke="black" d="M65.14,-751.19C79.79,-726.98 108.93,-683.63 143.89,-657 150.23,-652.17 157.31,-647.86 164.6,-644.04"/>
<polygon fill="black" stroke="black" points="166.48,-647.02 173.91,-639.47 163.39,-640.74 166.48,-647.02"/>
</g>
<!-- A2 -->
<g id="node19" class="node">
<title>A2</title>
<ellipse fill="aqua" stroke="black" cx="229.45" cy="-549" rx="60.62" ry="26.74"/>
<text text-anchor="middle" x="229.45" y="-552.8" font-family="Times New Roman,serif" font-size="14.00">Pelodera</text>
<text text-anchor="middle" x="229.45" y="-537.8" font-family="Times New Roman,serif" font-size="14.00">Teres&#45;group</text>
</g>
<!-- 001&#45;&gt;A2 -->
<g id="edge19" class="edge">
<title>001&#45;&gt;A2</title>
<path fill="none" stroke="black" d="M59.09,-751.05C68.29,-714.93 93.68,-632.86 143.89,-585 151.08,-578.15 159.77,-572.5 168.81,-567.87"/>
<polygon fill="black" stroke="black" points="170.37,-571.01 177.93,-563.58 167.39,-564.67 170.37,-571.01"/>
</g>
<!-- B2 -->
<g id="node20" class="node">
<title>B2</title>
<ellipse fill="aqua" stroke="black" cx="229.45" cy="-486" rx="42.49" ry="18"/>
<text text-anchor="middle" x="229.45" y="-482.3" font-family="Times New Roman,serif" font-size="14.00">Reiterina</text>
</g>
<!-- 001&#45;&gt;B2 -->
<g id="edge20" class="edge">
<title>001&#45;&gt;B2</title>
<path fill="none" stroke="black" d="M55.88,-750.92C59.26,-704.59 74.66,-580.5 143.89,-513 153.47,-503.66 166.29,-497.54 179.04,-493.55"/>
<polygon fill="black" stroke="black" points="180.01,-496.91 188.72,-490.88 178.15,-490.16 180.01,-496.91"/>
</g>
<!-- C2 -->
<g id="node21" class="node">
<title>C2</title>
<ellipse fill="aqua" stroke="black" cx="229.45" cy="-432" rx="63.09" ry="18"/>
<text text-anchor="middle" x="229.45" y="-428.3" font-family="Times New Roman,serif" font-size="14.00">Buetschlinema</text>
</g>
<!-- 001&#45;&gt;C2 -->
<g id="edge21" class="edge">
<title>001&#45;&gt;C2</title>
<path fill="none" stroke="black" d="M54.6,-750.74C54.61,-697.92 61.99,-543.37 143.89,-459 149.69,-453.03 156.81,-448.37 164.43,-444.74"/>
<polygon fill="black" stroke="black" points="166.02,-447.87 173.92,-440.81 163.34,-441.4 166.02,-447.87"/>
</g>
<!-- D2 -->
<g id="node22" class="node">
<title>D2</title>
<ellipse fill="aqua" stroke="black" cx="229.45" cy="-378" rx="46.29" ry="18"/>
<text text-anchor="middle" x="229.45" y="-374.3" font-family="Times New Roman,serif" font-size="14.00">Pellioditis</text>
</g>
<!-- 001&#45;&gt;D2 -->
<g id="edge22" class="edge">
<title>001&#45;&gt;D2</title>
<path fill="none" stroke="black" d="M57.05,-750.75C65.03,-684.35 95.52,-456.85 143.89,-405 152.27,-396.02 163.62,-390.01 175.29,-386"/>
<polygon fill="black" stroke="black" points="176.52,-389.29 185.11,-383.08 174.52,-382.58 176.52,-389.29"/>
</g>
<!-- E2 -->
<g id="node23" class="node">
<title>E2</title>
<ellipse fill="aqua" stroke="black" cx="229.45" cy="-324" rx="66.09" ry="18"/>
<text text-anchor="middle" x="229.45" y="-320.3" font-family="Times New Roman,serif" font-size="14.00">Heterorhabditis</text>
</g>
<!-- 001&#45;&gt;E2 -->
<g id="edge23" class="edge">
<title>001&#45;&gt;E2</title>
<path fill="none" stroke="black" d="M56.44,-750.61C62.68,-677.93 88.99,-411.64 143.89,-351 149.01,-345.34 155.31,-340.87 162.15,-337.32"/>
<polygon fill="black" stroke="black" points="164.03,-340.32 171.73,-333.05 161.18,-333.92 164.03,-340.32"/>
</g>
<!-- F2 -->
<g id="node24" class="node">
<title>F2</title>
<ellipse fill="aqua" stroke="black" cx="229.45" cy="-270" rx="40.09" ry="18"/>
<text text-anchor="middle" x="229.45" y="-266.3" font-family="Times New Roman,serif" font-size="14.00">Litoditis</text>
</g>
<!-- 001&#45;&gt;F2 -->
<g id="edge24" class="edge">
<title>001&#45;&gt;F2</title>
<path fill="none" stroke="black" d="M55.93,-750.96C60.52,-673.11 82.3,-366.65 143.89,-297 153.08,-286.6 166.27,-280.18 179.51,-276.22"/>
<polygon fill="black" stroke="black" points="180.75,-279.52 189.57,-273.65 179.01,-272.73 180.75,-279.52"/>
</g>
<!-- G2 -->
<g id="node25" class="node">
<title>G2</title>
<ellipse fill="aqua" stroke="black" cx="229.45" cy="-207" rx="76.24" ry="26.74"/>
<text text-anchor="middle" x="229.45" y="-210.8" font-family="Times New Roman,serif" font-size="14.00">Oscheius</text>
<text text-anchor="middle" x="229.45" y="-195.8" font-family="Times New Roman,serif" font-size="14.00">Dolichura&#45;group</text>
</g>
<!-- 001&#45;&gt;G2 -->
<g id="edge25" class="edge">
<title>001&#45;&gt;G2</title>
<path fill="none" stroke="black" d="M55.73,-750.78C59.64,-667.61 79.5,-324.62 143.89,-243 148.27,-237.45 153.67,-232.73 159.61,-228.74"/>
<polygon fill="black" stroke="black" points="161.82,-231.5 168.63,-223.39 158.25,-225.48 161.82,-231.5"/>
</g>
<!-- H2 -->
<g id="node26" class="node">
<title>H2</title>
<ellipse fill="aqua" stroke="black" cx="229.45" cy="-135" rx="85.62" ry="26.74"/>
<text text-anchor="middle" x="229.45" y="-138.8" font-family="Times New Roman,serif" font-size="14.00">Oscheius</text>
<text text-anchor="middle" x="229.45" y="-123.8" font-family="Times New Roman,serif" font-size="14.00">lnsectivorus&#45;group</text>
</g>
<!-- 001&#45;&gt;H2 -->
<g id="edge26" class="edge">
<title>001&#45;&gt;H2</title>
<path fill="none" stroke="black" d="M55.32,-750.75C57.51,-660.8 71.2,-265.05 143.89,-171 147.58,-166.23 152.02,-162.08 156.91,-158.48"/>
<polygon fill="black" stroke="black" points="159.02,-161.28 165.52,-152.91 155.22,-155.4 159.02,-161.28"/>
</g>
<!-- I2 -->
<g id="node27" class="node">
<title>I2</title>
<ellipse fill="aqua" stroke="black" cx="229.45" cy="-72" rx="59.59" ry="18"/>
<text text-anchor="middle" x="229.45" y="-68.3" font-family="Times New Roman,serif" font-size="14.00">Metarhabditis</text>
</g>
<!-- 001&#45;&gt;I2 -->
<g id="edge27" class="edge">
<title>001&#45;&gt;I2</title>
<path fill="none" stroke="black" d="M54.82,-750.71C54.55,-653.88 57.94,-201.69 143.89,-99 149.64,-92.13 157.14,-86.99 165.29,-83.14"/>
<polygon fill="black" stroke="black" points="166.76,-86.33 174.72,-79.33 164.14,-79.84 166.76,-86.33"/>
</g>
<!-- XX -->
<g id="node29" class="node">
<title>XX</title>
<ellipse fill="none" stroke="black" cx="229.45" cy="-18" rx="27" ry="18"/>
<text text-anchor="middle" x="229.45" y="-14.3" font-family="Times New Roman,serif" font-size="14.00">XX</text>
</g>
<!-- 001&#45;&gt;XX -->
<g id="edge28" class="edge">
<title>001&#45;&gt;XX</title>
<path fill="none" stroke="black" d="M54.69,-750.84C53.29,-647.16 49.75,-140.6 143.89,-27 157.52,-10.56 181.17,-4 200,-4.31"/>
<polygon fill="black" stroke="black" points="199.87,-7.81 210.14,-5.21 200.49,-0.84 199.87,-7.81"/>
</g>
<!-- 001&#45;&gt;XX -->
<g id="edge29" class="edge">
<title>001&#45;&gt;XX</title>
<path fill="none" stroke="black" d="M54.63,-750.93C53.21,-650.03 51.17,-156.89 143.89,-45 155.62,-30.85 174.77,-24.02 191.88,-20.77"/>
<polygon fill="black" stroke="black" points="192.84,-24.16 202.19,-19.17 191.77,-17.24 192.84,-24.16"/>
</g>
<!-- 001&#45;&gt;XX -->
<g id="edge30" class="edge">
<title>001&#45;&gt;XX</title>
<path fill="none" stroke="black" d="M54.55,-751C53.17,-650.96 52.78,-172.94 143.89,-63 157.81,-46.2 182.19,-39.73 201.21,-34.25"/>
<polygon fill="black" stroke="black" points="202.29,-37.58 210.85,-31.34 200.27,-30.88 202.29,-37.58"/>
</g>
<!-- X -->
<g id="node28" class="node">
<title>X</title>
<ellipse fill="aqua" stroke="black" cx="53.95" cy="-823" rx="29.8" ry="18"/>
<text text-anchor="middle" x="53.95" y="-819.3" font-family="Times New Roman,serif" font-size="14.00">XXX</text>
</g>
</g>
</svg>
